<svg width="48" height="48" viewBox="0 0 48 48" fill="none" xmlns="http://www.w3.org/2000/svg">
<g id="fi_11746715">
<path id="Vector" d="M27.75 16.5H22.5V9.75C22.5 9.3375 22.1625 9 21.75 9H16.5V2.25C16.5 1.8375 16.1625 1.5 15.75 1.5H9.75C9.3375 1.5 9 1.8375 9 2.25V28.5C9 28.9125 9.3375 29.25 9.75 29.25C10.1625 29.25 10.5 28.9125 10.5 28.5V3H15V31.5C15 31.9125 15.3375 32.25 15.75 32.25C16.1625 32.25 16.5 31.9125 16.5 31.5V10.5H21V31.5C21 31.9125 21.3375 32.25 21.75 32.25C22.1625 32.25 22.5 31.9125 22.5 31.5V18H27V28.5C27 28.9125 27.3375 29.25 27.75 29.25C28.1625 29.25 28.5 28.9125 28.5 28.5V17.25C28.5 16.8375 28.1625 16.5 27.75 16.5Z" fill="#FF9A00"/>
<g id="Group">
<path id="Vector_2" d="M18.75 33C13.395 33 8.5425 30.0375 6.0825 25.275C5.0325 23.25 4.5 21.0525 4.5 18.75C4.5 16.4475 5.0475 14.22 6.0825 12.2175C6.27 11.85 6.7275 11.7075 7.095 11.895C7.4625 12.0825 7.605 12.54 7.4175 12.9075C6.4875 14.6925 6 16.7175 6 18.75C6 20.7825 6.4725 22.77 7.4175 24.585C9.615 28.8525 13.9575 31.5 18.75 31.5C25.7775 31.5 31.5 25.7775 31.5 18.75C31.5 11.7225 25.7775 6 18.75 6C18.3375 6 18 5.6625 18 5.25C18 4.8375 18.3375 4.5 18.75 4.5C26.61 4.5 33 10.89 33 18.75C33 26.61 26.61 33 18.75 33Z" fill="#0A0F26"/>
<path id="Vector_3" d="M18.75 36C9.24 36 1.5 28.26 1.5 18.75C1.5 14.3325 3.1725 10.1325 6.2025 6.915C6.4875 6.615 6.96 6.6 7.26 6.885C7.56 7.17 7.575 7.6425 7.29 7.9425C4.5225 10.875 2.9925 14.715 2.9925 18.7425C2.9925 27.4275 10.0575 34.4925 18.7425 34.4925C27.4275 34.4925 34.4925 27.4275 34.4925 18.7425C34.4925 10.0575 27.435 3 18.75 3C18.3375 3 18 2.6625 18 2.25C18 1.8375 18.3375 1.5 18.75 1.5C28.26 1.5 36 9.24 36 18.75C36 28.26 28.26 36 18.75 36Z" fill="#435F9C"/>
<path id="Vector_4" d="M18.75 33C13.395 33 8.5425 30.0375 6.0825 25.275C5.0325 23.25 4.5 21.0525 4.5 18.75C4.5 16.4475 5.0475 14.22 6.0825 12.2175C6.27 11.85 6.7275 11.7075 7.095 11.895C7.4625 12.0825 7.605 12.54 7.4175 12.9075C6.4875 14.6925 6 16.7175 6 18.75C6 20.7825 6.4725 22.77 7.4175 24.585C9.615 28.8525 13.9575 31.5 18.75 31.5C25.7775 31.5 31.5 25.7775 31.5 18.75C31.5 11.7225 25.7775 6 18.75 6C18.3375 6 18 5.6625 18 5.25C18 4.8375 18.3375 4.5 18.75 4.5C26.61 4.5 33 10.89 33 18.75C33 26.61 26.61 33 18.75 33Z" fill="#435F9C"/>
<path id="Vector_5" d="M34.1248 34.8752C33.9298 34.8752 33.7423 34.8002 33.5923 34.6577L29.8873 30.9527C29.5948 30.6602 29.5948 30.1877 29.8873 29.8952C30.1798 29.6027 30.6523 29.6027 30.9448 29.8952L34.6498 33.6002C34.9423 33.8927 34.9423 34.3652 34.6498 34.6577C34.4998 34.8077 34.3123 34.8752 34.1173 34.8752H34.1248Z" fill="#435F9C"/>
</g>
<path id="Vector_6" d="M45.8392 40.7777L39.9142 34.8527C39.9142 34.8527 39.9142 34.8452 39.9067 34.8377C39.8992 34.8302 39.8992 34.8377 39.8917 34.8302L37.7167 32.6552C36.8692 31.8077 35.3842 31.8077 34.5367 32.6552L32.6542 34.5302C31.7767 35.4077 31.7767 36.8327 32.6542 37.7102L34.8367 39.8927C34.8367 39.8927 34.8367 39.9002 34.8442 39.9077C34.8517 39.9152 34.8517 39.9077 34.8592 39.9152L40.7842 45.8402C41.2192 46.2752 41.7967 46.5002 42.3742 46.5002C42.9517 46.5002 43.5292 46.2827 43.9642 45.8402L45.8392 43.9652C46.2667 43.5377 46.4992 42.9752 46.4992 42.3752C46.4992 41.7752 46.2667 41.2127 45.8392 40.7852V40.7777ZM33.7117 35.5877L35.5942 33.7052C35.7367 33.5627 35.9242 33.4877 36.1267 33.4877C36.3292 33.4877 36.5167 33.5627 36.6592 33.7052L38.3167 35.3627L35.3767 38.3027L33.7192 36.6452C33.4267 36.3527 33.4267 35.8727 33.7192 35.5802L33.7117 35.5877ZM44.7817 42.9002L42.9067 44.7752C42.6142 45.0677 42.1417 45.0677 41.8492 44.7752L36.4417 39.3677L39.3817 36.4277L44.7892 41.8352C44.9317 41.9777 45.0067 42.1652 45.0067 42.3677C45.0067 42.5702 44.9317 42.7577 44.7892 42.9002H44.7817Z" fill="#435F9C"/>
</g>
</svg>
