<svg width="48" height="48" viewBox="0 0 48 48" fill="none" xmlns="http://www.w3.org/2000/svg">
<g id="fi_14296808">
<path id="Vector" d="M38.9597 13.8682C38.831 13.7396 38.6565 13.6673 38.4745 13.6673C38.2925 13.6673 38.118 13.7396 37.9893 13.8682L36.18 15.6785L26.2218 5.71853L28.23 3.71228C28.2975 3.64947 28.3517 3.57368 28.3893 3.48944C28.4269 3.4052 28.4472 3.31425 28.4488 3.22201C28.4505 3.12978 28.4335 3.03815 28.399 2.95262C28.3644 2.86709 28.313 2.7894 28.2477 2.7242C28.1825 2.659 28.1047 2.60763 28.0192 2.57316C27.9336 2.53868 27.8419 2.52181 27.7497 2.52356C27.6575 2.52531 27.5665 2.54563 27.4823 2.58332C27.3981 2.62101 27.3224 2.67528 27.2597 2.7429L24.7668 5.23478C24.6384 5.36359 24.5663 5.53805 24.5663 5.71994C24.5663 5.90182 24.6384 6.07628 24.7668 6.20509L25.1325 6.57072L18.8747 11.8648L12.2034 20.1148C12.145 20.1867 12.1016 20.2696 12.0759 20.3585L8.86403 31.646C8.82266 31.7917 8.83057 31.9469 8.88651 32.0877C8.94246 32.2284 9.04331 32.3467 9.17341 32.4242C9.23341 32.4598 10.6518 33.2848 12.0947 32.7785C13.0181 32.4551 13.7128 31.6929 14.1572 30.5126C15.1743 27.8248 16.7653 24.3542 17.2228 23.367L22.6603 21.6645C22.9153 21.5846 23.1846 21.5611 23.4496 21.5958C23.7146 21.6304 23.9688 21.7222 24.1947 21.8649C24.4207 22.0076 24.6128 22.1978 24.7579 22.4222C24.903 22.6466 24.9975 22.8999 25.035 23.1645C25.3162 25.1979 25.5722 26.7317 25.785 27.7235C26.4975 31.0526 28.2759 32.9473 30.6787 32.9473H30.8175C30.9973 32.9416 31.1677 32.8657 31.2921 32.7359C31.4166 32.606 31.4851 32.4325 31.4831 32.2526L31.4231 27.2417C31.4056 25.8507 31.573 24.4635 31.9209 23.1167C32.4433 21.1068 32.5927 19.0182 32.3615 16.9545L32.3043 16.4426L33.8765 15.3176L35.6943 17.1363C35.8232 17.2648 35.9976 17.3369 36.1795 17.3369C36.3614 17.3369 36.5358 17.2648 36.6647 17.1363L38.9597 14.8404C39.0239 14.7768 39.0748 14.7011 39.1096 14.6176C39.1444 14.5342 39.1623 14.4447 39.1623 14.3543C39.1623 14.2639 39.1444 14.1744 39.1096 14.091C39.0748 14.0076 39.0239 13.9318 38.9597 13.8682ZM31.1784 15.5557C31.0796 15.6269 31.0014 15.7232 30.952 15.8345C30.9026 15.9459 30.8836 16.0684 30.8972 16.1895L30.9984 17.1007C31.2107 18.9992 31.0738 20.9206 30.5943 22.7698C30.2158 24.2332 30.0332 25.7405 30.0515 27.252L30.1031 31.5129C28.2084 31.1238 27.4303 28.8504 27.1275 27.432C26.9212 26.472 26.6747 24.9701 26.3943 22.9695C26.3293 22.5077 26.1646 22.0657 25.9115 21.6741C25.6585 21.2825 25.3232 20.9506 24.929 20.7016C24.5348 20.4527 24.091 20.2925 23.6287 20.2323C23.1663 20.172 22.6964 20.2132 22.2515 20.3529L16.5262 22.1454C16.4354 22.1739 16.3516 22.221 16.2799 22.2836C16.2083 22.3462 16.1504 22.423 16.11 22.5092C16.0903 22.5513 14.0878 26.8217 12.8765 30.0251C12.5822 30.8042 12.1687 31.2926 11.6503 31.4782C11.19 31.6404 10.6968 31.5542 10.3481 31.4417L13.3584 20.8648L19.8515 12.8182L26.1056 7.54103L32.894 14.3285L31.1784 15.5557Z" fill="#435F9C"/>
<path id="Vector_2" d="M35.4307 13.6781H35.4302C35.3883 13.6781 35.3467 13.6698 35.3079 13.6537C35.2691 13.6377 35.2339 13.6141 35.2042 13.5844C35.1745 13.5547 35.151 13.5195 35.1349 13.4807C35.1188 13.4419 35.1105 13.4004 35.1105 13.3584L35.1105 13.3579C35.1105 13.2945 35.1292 13.2324 35.1644 13.1796C35.1996 13.1268 35.2496 13.0856 35.3082 13.0613C35.3669 13.037 35.4314 13.0306 35.4936 13.043C35.5558 13.0553 35.613 13.0859 35.6579 13.1307C35.7028 13.1756 35.7333 13.2328 35.7457 13.295C35.758 13.3572 35.7516 13.4218 35.7273 13.4804C35.703 13.539 35.6618 13.589 35.609 13.6242C35.5562 13.6594 35.4941 13.6782 35.4307 13.6781Z" fill="#435F9C" stroke="white" stroke-width="0.6"/>
<path id="Vector_3" d="M25.5842 40.4663C25.5323 40.3409 25.4444 40.2337 25.3316 40.1583C25.2188 40.0829 25.0862 40.0426 24.9505 40.0425H23.5442L22.8748 29.5519C23.4333 29.0722 23.8314 28.433 24.0158 27.7202C24.2001 27.0075 24.1618 26.2554 23.906 25.5651C23.6502 24.8748 23.1892 24.2793 22.5849 23.8588C21.9807 23.4383 21.2621 23.2129 20.5259 23.2129C19.7898 23.2129 19.0712 23.4383 18.4669 23.8588C17.8627 24.2793 17.4016 24.8748 17.1458 25.5651C16.89 26.2554 16.8517 27.0075 17.0361 27.7202C17.2204 28.433 17.6186 29.0722 18.177 29.5519L17.5048 40.0425H16.0986C15.9629 40.0424 15.8302 40.0827 15.7174 40.1581C15.6045 40.2336 15.5166 40.3408 15.4648 40.4663L13.7905 44.5097C13.7473 44.6139 13.7305 44.7272 13.7416 44.8395C13.7526 44.9517 13.7912 45.0596 13.8539 45.1534C13.9165 45.2472 14.0014 45.3241 14.1009 45.3773C14.2003 45.4305 14.3114 45.4584 14.4242 45.4584H26.6248C26.7377 45.4584 26.8487 45.4305 26.9482 45.3773C27.0477 45.3241 27.1325 45.2472 27.1952 45.1534C27.2578 45.0596 27.2964 44.9517 27.3075 44.8395C27.3185 44.7272 27.3018 44.6139 27.2586 44.5097L25.5842 40.4663ZM20.5217 24.6103C20.9632 24.6103 21.3949 24.7413 21.762 24.9866C22.1291 25.2319 22.4152 25.5806 22.5841 25.9885C22.753 26.3964 22.7972 26.8453 22.7109 27.2783C22.6247 27.7114 22.4121 28.1091 22.0998 28.4212C21.7875 28.7334 21.3897 28.9459 20.9566 29.0319C20.5236 29.1179 20.0747 29.0736 19.6668 28.9045C19.259 28.7354 18.9104 28.4492 18.6653 28.082C18.4201 27.7148 18.2893 27.2831 18.2895 26.8416C18.2898 26.5482 18.3478 26.2578 18.4603 25.9869C18.5728 25.716 18.7376 25.4699 18.9453 25.2627C19.1529 25.0555 19.3993 24.8913 19.6705 24.7793C19.9416 24.6674 20.2321 24.6099 20.5255 24.6103H20.5217ZM20.5217 30.4453C20.8694 30.4407 21.2146 30.3854 21.5464 30.2813L22.1708 40.0434H18.8783L19.5045 30.2813C19.8351 30.3852 20.179 30.4405 20.5255 30.4453H20.5217ZM20.5217 44.0859H15.4508L16.557 41.415H24.492L25.5992 44.0859H20.5217Z" fill="#FF9A00"/>
</g>
</svg>
