<svg width="48" height="48" viewBox="0 0 48 48" fill="none" xmlns="http://www.w3.org/2000/svg">
<g id="fi_15227759">
<g id="art board 15">
<g id="Layer 2">
<g id="_Group_">
<path id="_Path_" d="M28.2015 25.4417V15.9861C28.2124 14.7847 26.4322 13.8018 24.8813 13.8018H23.6144L21.8997 24.1297H17.3127L15.4997 13.8018H14.2328C12.6819 13.8018 11 14.7738 11 15.9861V27.2353C10.9994 27.4735 11.0459 27.7096 11.1368 27.9298C11.2277 28.15 11.3612 28.3501 11.5297 28.5186C11.6982 28.6871 11.8983 28.8206 12.1185 28.9115C12.3387 29.0024 12.5747 29.0489 12.813 29.0483H13.1843L16.297 44.9392H22.9045L23.4557 41.7165" stroke="#092C4C" stroke-width="1.31059" stroke-miterlimit="10"/>
<path id="_Compound_Path_" d="M19.6071 12.0103C20.356 12.011 21.0932 11.825 21.7521 11.4691C22.411 11.1133 22.9708 10.5988 23.3808 9.97218C23.7909 9.34558 24.0383 8.62665 24.1007 7.8804C24.1631 7.13415 24.0384 6.38413 23.7381 5.69815C23.4377 5.01218 22.9711 4.41189 22.3804 3.95159C21.7897 3.49129 21.0936 3.18548 20.3551 3.06184C19.6165 2.93819 18.8587 3.0006 18.1504 3.24342C17.442 3.48625 16.8053 3.90182 16.2979 4.45257C16.074 4.6623 15.8892 4.91005 15.7518 5.18431C15.341 5.8674 15.1187 6.64728 15.1078 7.44432C15.0969 8.24136 15.2977 9.02702 15.6898 9.72109C16.0818 10.4152 16.6509 10.9928 17.3392 11.3949C18.0274 11.7971 18.81 12.0095 19.6071 12.0103Z" stroke="#092C4C" stroke-width="1.31059" stroke-miterlimit="10"/>
<g id="Layer 2_2">
<g id="_Group_2">
<path id="_Path_2" d="M19.1396 15.6629L18.6289 14.7782L19.1396 13.8936H20.1605L20.6708 14.7782L20.1605 15.6629H19.1396Z" stroke="#FF9B00" stroke-width="1.31059" stroke-miterlimit="10"/>
<path id="_Path_3" d="M20.5036 21.3528L19.6853 22.2858L18.7407 21.345L19.3603 15.8815H19.9478L20.5036 21.3528Z" fill="#FF9B00" stroke="#FF9B00" stroke-width="0.436863"/>
</g>
</g>
</g>
</g>
<path id="Vector" d="M35.2503 32.9361L35.2882 33.1073H35.4636H37.0614V35.9324L35.4635 35.9324L35.2868 35.9324L35.2499 36.1052C35.0666 36.9644 34.7293 37.7833 34.2542 38.5224L34.1591 38.6705L34.2835 38.7949L35.4141 39.9255L33.4187 41.921L32.2881 40.7904L32.1646 40.6669L32.0169 40.7602C31.2739 41.2299 30.455 41.5672 29.5967 41.7571L29.4255 41.795V41.9704V43.5683H26.6004V41.9704V41.7936L26.4276 41.7568C25.5684 41.5735 24.7494 41.2361 24.0104 40.7611L23.8623 40.6659L23.7378 40.7904L22.6073 41.921L20.6118 39.9255L21.7424 38.7949L21.8659 38.6714L21.7726 38.5238C21.3029 37.7807 20.9656 36.9619 20.7757 36.1036L20.7378 35.9324H20.5624H18.9645V33.1073H20.5624H20.7392L20.7761 32.9344C20.9594 32.0752 21.2967 31.2563 21.7717 30.5172L21.8669 30.3692L21.7424 30.2447L20.6119 29.1141L22.6073 27.1187L23.7379 28.2492L23.8614 28.3727L24.009 28.2794C24.7521 27.8098 25.5709 27.4725 26.4292 27.2825L26.6004 27.2446V27.0692V25.4714H29.4256V27.0878V27.2645L29.5984 27.3014C30.4576 27.4847 31.2765 27.822 32.0156 28.2971L32.1647 28.3929L32.2892 28.2666L33.4198 27.1198L35.4141 29.1141L34.2836 30.2447L34.1601 30.3682L34.2534 30.5158C34.7231 31.2589 35.0604 32.0778 35.2503 32.9361ZM25.0428 38.965C25.922 39.5524 26.9556 39.8659 28.013 39.8659C28.715 39.8659 29.4102 39.7277 30.0589 39.459C30.7075 39.1903 31.2968 38.7965 31.7933 38.3001C32.2897 37.8037 32.6835 37.2143 32.9522 36.5657C33.2208 35.9171 33.3591 35.2219 33.3591 34.5198C33.3591 33.4624 33.0455 32.4288 32.4581 31.5497C31.8707 30.6705 31.0357 29.9853 30.0588 29.5806C29.0819 29.176 28.007 29.0701 26.97 29.2764C25.9329 29.4827 24.9803 29.9919 24.2327 30.7396C23.485 31.4872 22.9758 32.4398 22.7696 33.4769C22.5633 34.5139 22.6692 35.5888 23.0738 36.5657C23.4784 37.5426 24.1637 38.3775 25.0428 38.965Z" fill="#FF9B00" stroke="#FF9B00" stroke-width="0.436863"/>
</g>
</g>
</svg>
