<svg width="42" height="37" viewBox="0 0 42 37" fill="none" xmlns="http://www.w3.org/2000/svg">
<g clip-path="url(#clip0_14949_4788)">
<path d="M37.3401 29.9364L37.6694 30.2254L38.0298 30.5418L37.3401 29.9364ZM37.3401 29.9364L37.0104 30.225M37.3401 29.9364L37.0104 30.225M37.0104 30.225L34.3586 32.5452L33.929 32.9211M37.0104 30.225L33.929 32.9211M33.929 32.9211L34.3582 33.2975M33.929 32.9211L34.3582 33.2975M34.3582 33.2975L34.7208 33.6153L34.7212 33.6157M34.3582 33.2975L34.7212 33.6157M34.7212 33.6157C35.6396 34.4193 37.1105 34.4191 38.0298 33.6145M34.7212 33.6157L38.0298 33.6145M38.0298 33.6145C38.9887 32.7759 38.989 31.3812 38.0305 30.5424L38.0298 33.6145ZM40.0242 28.9751L40.0246 28.9755C41.9886 30.694 41.9889 33.4621 40.0232 35.1821C39.0278 36.053 37.708 36.4978 36.375 36.4978C35.042 36.4978 33.7222 36.053 32.7268 35.1821L22.474 26.1942L22.474 26.1941C22.3098 26.0502 22.1983 25.8783 22.1415 25.6984L22.1414 25.698L20.0449 19.0764C20.0448 19.0763 20.0448 19.0762 20.0448 19.0762C19.9279 18.7061 20.0411 18.2931 20.3904 17.995C20.7473 17.6904 21.2862 17.5681 21.7914 17.7025L21.7915 17.7025L29.1721 19.6642L29.1722 19.6642C29.3976 19.7241 29.5963 19.83 29.7529 19.9675L29.7531 19.9677L40.0242 28.9751ZM24.6699 24.7081L24.7121 24.8412L24.817 24.9332L31.7091 30.975L32.0384 31.2637L32.368 30.9753L35.0201 28.6547L35.4496 28.2788L35.0205 27.9025L28.0899 21.8248L28.0019 21.7476L27.8887 21.7175L24.2204 20.7424L23.3404 20.5085L23.6152 21.3766L24.6699 24.7081ZM3.875 4.26953C3.875 3.70011 4.42569 3.12891 5.25 3.12891H30.75C31.5743 3.12891 32.125 3.70011 32.125 4.26953C32.125 4.83895 31.5743 5.41016 30.75 5.41016H5.25C4.42569 5.41016 3.875 4.83895 3.875 4.26953ZM30.75 9.69141C31.5743 9.69141 32.125 10.2626 32.125 10.832C32.125 11.4015 31.5743 11.9727 30.75 11.9727H5.25C4.42569 11.9727 3.875 11.4015 3.875 10.832C3.875 10.2626 4.42569 9.69141 5.25 9.69141H30.75ZM3.875 17.3945C3.875 16.8251 4.42569 16.2539 5.25 16.2539H13.875C14.6993 16.2539 15.25 16.8251 15.25 17.3945C15.25 17.964 14.6993 18.5352 13.875 18.5352H5.25C4.42569 18.5352 3.875 17.964 3.875 17.3945Z" fill="#FF9A00" stroke="white"/>
</g>
<defs>
<clipPath id="clip0_14949_4788">
<rect width="45.7143" height="44" fill="white" transform="translate(0.857422)"/>
</clipPath>
</defs>
</svg>
