<svg width="48" height="48" viewBox="0 0 48 48" fill="none" xmlns="http://www.w3.org/2000/svg">
<path d="M35.3212 46.6768H12.6769C9.66655 46.6734 6.78045 45.4761 4.65177 43.3475C2.5231 41.2188 1.3257 38.3328 1.32227 35.3224V12.6781C1.3257 9.66773 2.5231 6.78166 4.65177 4.65304C6.78045 2.52442 9.66655 1.32709 12.6769 1.32373H35.3213C38.3316 1.32709 41.2178 2.52442 43.3464 4.65304C45.4751 6.78166 46.6725 9.66773 46.6759 12.6781V35.3225C46.6725 38.3328 45.4751 41.2189 43.3464 43.3475C41.2177 45.4761 38.3316 46.6734 35.3212 46.6768ZM12.6769 3.20649C10.1657 3.20932 7.75823 4.20812 5.98254 5.98377C4.20686 7.75943 3.20801 10.1669 3.20514 12.6781V35.3225C3.20803 37.8336 4.20689 40.2411 5.98257 42.0167C7.75825 43.7924 10.1658 44.7912 12.6769 44.794H35.3213C37.8325 44.7912 40.24 43.7924 42.0157 42.0167C43.7914 40.241 44.7902 37.8335 44.7931 35.3223V12.6781C44.7902 10.1669 43.7913 7.7594 42.0156 5.98375C40.2399 4.20809 37.8324 3.2093 35.3212 3.20649H12.6769Z" fill="#435F9C"/>
<path d="M24.0004 35.596C21.7069 35.596 19.4649 34.9159 17.558 33.6417C15.651 32.3675 14.1647 30.5564 13.287 28.4375C12.4093 26.3187 12.1797 23.9871 12.6271 21.7377C13.0745 19.4883 14.1789 17.422 15.8006 15.8003C17.4224 14.1785 19.4886 13.0741 21.738 12.6267C23.9874 12.1792 26.319 12.4088 28.4379 13.2865C30.5568 14.1641 32.3678 15.6504 33.6421 17.5573C34.9163 19.4643 35.5964 21.7062 35.5964 23.9997C35.593 27.0741 34.3702 30.0216 32.1962 32.1956C30.0223 34.3696 27.0748 35.5924 24.0004 35.596ZM24.0004 14.2866C22.0792 14.2865 20.2012 14.8562 18.6038 15.9235C17.0064 16.9908 15.7614 18.5078 15.0262 20.2827C14.291 22.0576 14.0986 24.0107 14.4734 25.8949C14.8482 27.7791 15.7733 29.5099 17.1318 30.8684C18.4902 32.2268 20.221 33.1519 22.1052 33.5267C23.9895 33.9015 25.9425 33.7091 27.7174 32.9739C29.4923 32.2387 31.0093 30.9937 32.0766 29.3963C33.1439 27.7989 33.7136 25.9209 33.7136 23.9998C33.7107 21.4246 32.6864 18.9556 30.8654 17.1347C29.0445 15.3137 26.5756 14.2895 24.0004 14.2866Z" fill="#FF9B00"/>
<path d="M36.0163 14.2531C35.3486 14.2531 34.6959 14.0551 34.1408 13.6841C33.5857 13.3131 33.153 12.7859 32.8975 12.169C32.6421 11.5522 32.5752 10.8734 32.7055 10.2186C32.8358 9.56371 33.1573 8.96222 33.6295 8.49012C34.1016 8.01803 34.7031 7.69654 35.358 7.56631C36.0128 7.43608 36.6916 7.50295 37.3084 7.75848C37.9253 8.01401 38.4525 8.44671 38.8234 9.00187C39.1943 9.55703 39.3923 10.2097 39.3923 10.8774C39.3912 11.7724 39.0352 12.6305 38.4023 13.2633C37.7694 13.8962 36.9113 14.2522 36.0163 14.2531ZM36.0163 9.38415C35.721 9.38415 35.4323 9.47172 35.1867 9.63579C34.9412 9.79985 34.7498 10.033 34.6368 10.3059C34.5238 10.5787 34.4942 10.8789 34.5518 11.1686C34.6094 11.4582 34.7516 11.7242 34.9604 11.9331C35.1692 12.1419 35.4353 12.2841 35.7249 12.3417C36.0145 12.3994 36.3148 12.3698 36.5876 12.2568C36.8604 12.1438 37.0936 11.9524 37.2577 11.7069C37.4218 11.4614 37.5094 11.1727 37.5094 10.8774C37.509 10.4815 37.3515 10.102 37.0716 9.82205C36.7917 9.54212 36.4121 9.38462 36.0163 9.38415Z" fill="#FF9B00"/>
</svg>
