<svg width="48" height="48" viewBox="0 0 48 48" fill="none" xmlns="http://www.w3.org/2000/svg">
<g id="fi_1476838" clip-path="url(#clip0_14949_4826)">
<path id="Vector" d="M44.9832 4.05757C38.5558 -2.27935 27.8694 2.37702 27.7408 11.1218C27.6907 14.6308 29.4207 17.8674 32.3683 19.7772C32.9832 20.1756 32.7957 20.0251 36.4633 26.5037C36.5288 26.6195 36.6057 26.7224 36.6903 26.8139L31.3396 31.9687C29.3979 30.041 26.1746 30.3984 24.7031 32.718L17.5613 28.4674C17.5507 26.1137 15.6317 24.201 13.2751 24.201C9.5343 24.201 7.6095 28.6754 10.1323 31.397L5.45947 38.4576C2.73669 37.6787 0 39.732 0 42.58C0 44.9428 1.92188 46.8658 4.28503 46.8658C8.4071 46.8658 10.1418 41.5825 6.82874 39.1333L11.3438 32.3122C13.5692 33.4449 16.3341 32.4188 17.2639 30.0534L24.126 34.1378C23.5719 36.791 25.6099 39.2951 28.322 39.2951C31.4407 39.2951 33.5193 36.0479 32.2181 33.2244C38.7627 26.9194 38.3606 27.3164 38.4254 27.227C38.7675 27.104 39.0743 26.8634 39.2776 26.5037C42.9434 20.028 42.7573 20.1756 43.3744 19.7761C46.2711 17.8978 48 14.718 48 11.2705C48 8.53852 46.9288 5.97651 44.9832 4.05757ZM7.05688 42.58C7.05688 44.1082 5.81323 45.3519 4.28503 45.3519C2.75684 45.3519 1.51428 44.1082 1.51428 42.58C1.51428 41.0515 2.75684 39.8082 4.28503 39.8082C5.81323 39.8082 7.05688 41.0515 7.05688 42.58ZM11.0068 30.0769C9.72656 28.2615 11.0266 25.7153 13.2751 25.7153C14.811 25.7153 16.047 26.9674 16.047 28.4871C16.047 31.1748 12.5654 32.295 11.0068 30.0769ZM28.322 37.7812C26.4906 37.7812 25.418 36.0571 25.552 34.9855C25.5685 32.5546 28.5092 31.33 30.2487 33.0201C32.024 34.7329 30.8181 37.7812 28.322 37.7812ZM42.6021 18.5848C42.1139 18.9016 41.707 19.3311 41.4258 19.8281C37.7791 26.2701 38.0376 25.9046 37.8706 25.9046C37.7032 25.9046 37.9677 26.2803 34.3151 19.8281C34.0338 19.3311 33.6281 18.9016 33.1395 18.5855C30.6046 16.9427 29.1167 14.1606 29.1603 11.1426C29.2698 3.54231 38.5272 -0.312796 43.9867 5.06831C47.9535 8.98091 47.276 15.5544 42.6021 18.5848Z" fill="#435F9C"/>
<path id="Vector_2" d="M43.5422 7.07323C41.1633 3.84985 36.7343 3.33532 33.6834 5.58715C30.6197 7.84814 29.8462 12.2602 32.197 15.4459C34.6971 18.8337 39.4717 19.2351 42.5263 16.553C42.8405 16.2772 42.8716 15.7989 42.5959 15.4847C42.3201 15.1705 41.8419 15.1394 41.5273 15.4152C39.1205 17.5271 35.3746 17.2019 33.4153 14.5469C31.5704 12.0464 32.1768 8.58092 34.5825 6.80517C36.9866 5.03088 40.4616 5.44945 42.3238 7.97228C43.5253 9.60046 43.7015 11.663 42.972 13.408C42.8108 13.7936 42.9929 14.2371 43.3785 14.3986C43.7641 14.5593 44.2079 14.3777 44.3691 13.9917C45.2721 11.8314 45.1063 9.1925 43.5422 7.07323Z" fill="#FF9A00"/>
</g>
<defs>
<clipPath id="clip0_14949_4826">
<rect width="48" height="48" fill="white"/>
</clipPath>
</defs>
</svg>
