<svg width="48" height="48" viewBox="0 0 48 48" fill="none" xmlns="http://www.w3.org/2000/svg">
<path d="M38.4549 6.36719H9.54514C4.2818 6.36719 0 10.6627 0 15.9417V32.057C0 37.337 4.2818 41.6315 9.54514 41.6315H38.4549C43.7182 41.6315 48 37.336 48 32.057V15.9417C48 10.6627 43.7182 6.36719 38.4549 6.36719ZM46.0408 32.058C46.0408 36.2575 42.6377 39.6733 38.4549 39.6733H9.54514C5.36229 39.6733 1.95918 36.2565 1.95918 32.058V15.9417C1.95918 11.7432 5.36229 8.32637 9.54514 8.32637H38.4549C42.6377 8.32637 46.0408 11.7432 46.0408 15.9417V32.058Z" fill="#435F9C"/>
<path d="M32.6793 23.6454L19.1071 15.696C18.8054 15.5197 18.4302 15.5167 18.1255 15.6911C17.8209 15.8655 17.6328 16.1897 17.6328 16.5414V32.4392C17.6328 32.7899 17.8209 33.1151 18.1246 33.2895C18.2754 33.3757 18.4439 33.4188 18.6124 33.4188C18.7838 33.4188 18.9543 33.3737 19.1071 33.2846L32.6793 25.3371C32.9791 25.1618 33.1642 24.8395 33.1642 24.4917C33.1642 24.144 32.9801 23.8207 32.6793 23.6454ZM19.592 30.7298V18.2498L30.246 24.4908L19.592 30.7298Z" fill="#FF9B00"/>
</svg>
