<svg width="48" height="48" viewBox="0 0 48 48" fill="none" xmlns="http://www.w3.org/2000/svg">
<g clip-path="url(#clip0_15325_1105)">
<path fill-rule="evenodd" clip-rule="evenodd" d="M30.8085 45.9375H34.5C40.8128 45.9375 45.9375 40.8128 45.9375 34.5V13.5C45.9375 7.18725 40.8128 2.0625 34.5 2.0625H13.5C7.18725 2.0625 2.0625 7.18725 2.0625 13.5V34.5C2.0625 40.8128 7.18725 45.9375 13.5 45.9375H24.5625C25.08 45.9375 25.5 45.5175 25.5 45C25.5 44.4825 25.08 44.0625 24.5625 44.0625H13.5C8.22225 44.0625 3.9375 39.7778 3.9375 34.5V13.5C3.9375 8.22225 8.22225 3.9375 13.5 3.9375H34.5C39.7778 3.9375 44.0625 8.22225 44.0625 13.5V34.5C44.0625 39.7778 39.7778 44.0625 34.5 44.0625H30.8085C30.291 44.0625 29.871 44.4825 29.871 45C29.871 45.5175 30.291 45.9375 30.8085 45.9375Z" fill="#435F9C"/>
<path fill-rule="evenodd" clip-rule="evenodd" d="M29.8765 20.1984V23.7495C29.8765 24.2673 30.2971 24.688 30.8149 24.688H35.528L34.8728 28.8H30.8149C30.2971 28.8 29.8765 29.2192 29.8765 29.737V45.0078C29.8765 45.5256 30.2971 45.9462 30.8149 45.9462C31.3313 45.9462 31.752 45.5256 31.752 45.0078V30.6755H35.6738C36.1347 30.6755 36.5262 30.3395 36.5998 29.8856L37.5521 23.8967C37.5951 23.626 37.5174 23.3497 37.3397 23.1415C37.162 22.9318 36.901 22.8125 36.6261 22.8125H31.752V20.0193L30.8149 20.9577L30.8385 20.9147L31.7339 19.9735C31.6867 19.0142 31.8242 18.2451 32.5461 18.1812H37.062C37.5799 18.1812 37.9991 17.7606 37.9991 17.2428V11.6898C37.9991 11.2525 37.6965 10.8735 37.2703 10.7763C33.6886 9.95726 29.6169 10.2155 26.9167 11.7731C24.9468 12.9087 23.6571 14.7009 23.6293 17.2331V22.8125H19.273C18.7552 22.8125 18.3359 23.2317 18.3359 23.7495V29.737C18.3359 30.2549 18.7552 30.6755 19.273 30.6755H23.6293V45.0078C23.6293 45.5256 24.05 45.9462 24.5678 45.9462C25.0842 45.9462 25.5049 45.5256 25.5049 45.0078V29.737C25.5049 29.2192 25.0856 28.8 24.5678 28.8H20.2115V24.688H24.5678C25.0856 24.688 25.5049 24.2673 25.5049 23.7495V17.2497C25.5312 14.9772 27.0292 13.5764 29.0629 12.8434C31.1203 12.1007 33.7094 12.0174 36.1236 12.4547V16.3057H32.5169C32.4975 16.3057 32.4794 16.3057 32.46 16.3071C30.7386 16.4126 29.7501 17.8231 29.8612 20.0665C29.8626 20.1109 29.8681 20.1553 29.8765 20.1984Z" fill="#FF9B00"/>
</g>
<defs>
<clipPath id="clip0_15325_1105">
<rect width="48" height="48" fill="white"/>
</clipPath>
</defs>
</svg>
