<svg width="48" height="48" viewBox="0 0 48 48" fill="none" xmlns="http://www.w3.org/2000/svg">
<g clip-path="url(#clip0_15325_1461)">
<path d="M41.2531 0H39.1893C38.2822 0 38.2822 1.40645 39.1893 1.40645H41.2531C43.3843 1.40645 45.1183 3.13414 45.1183 5.2577V21.5324C45.1183 23.6561 43.3844 25.3838 41.2531 25.3838H38.9124C38.758 25.3838 38.6079 25.4346 38.4851 25.5284L34.1902 28.8137V26.087C34.1902 25.6986 33.8755 25.3838 33.487 25.3838H24.9283C24.2274 25.3838 23.5538 25.1988 22.9597 24.8471V16.9529C22.9597 15.4743 22.2066 14.1679 21.0629 13.395V5.2577C21.0629 3.13414 22.7969 1.40645 24.9283 1.40645H34.7824C35.6895 1.40645 35.6895 0 34.7824 0H24.9283C22.0214 0 19.6565 2.35862 19.6565 5.2577V12.7769C19.3345 12.7 18.999 12.6581 18.6538 12.6581H5.78042C3.40623 12.6581 1.47461 14.5847 1.47461 16.9529V18.4714C1.47461 19.3785 2.88106 19.3785 2.88106 18.4714V16.9529C2.88106 15.3603 4.18166 14.0645 5.78042 14.0645H18.6539C20.2526 14.0645 21.5533 15.3603 21.5533 16.9529V25.127C21.5449 25.1891 21.5453 25.2517 21.5533 25.3133V29.7869C21.5533 29.8753 21.548 29.9634 21.54 30.0509H20.0898C18.4918 30.0509 17.1596 31.2043 16.8833 32.7202C16.8194 32.7443 16.758 32.778 16.7011 32.8218L13.5558 35.2504V33.3785C13.5558 32.9901 13.241 32.6753 12.8525 32.6753H5.78042C4.18166 32.6753 2.88106 31.3796 2.88106 29.7869V22.6908C2.88106 21.7837 1.47461 21.7837 1.47461 22.6908V29.787C1.47461 32.1552 3.40623 34.0818 5.78042 34.0818H12.1494V36.6819C12.1494 37.246 12.8343 37.5844 13.2824 37.2386L16.83 34.4995V42.4108C16.83 44.204 18.2924 45.6628 20.0899 45.6628H24.4053V47.3037C24.4053 47.8676 25.0903 48.2064 25.5383 47.8604L28.3846 45.6628H29.2254C31.0229 45.6628 32.4853 44.2039 32.4853 42.4108V41.1622C32.4853 40.2551 31.0789 40.2551 31.0789 41.1622V42.4108C31.0789 43.4285 30.2475 44.2563 29.2254 44.2563H28.1446C27.9891 44.2563 27.8379 44.3079 27.7149 44.4029L25.8117 45.8722V44.9594C25.8117 44.5711 25.4969 44.2562 25.1085 44.2562H20.0898C19.0678 44.2562 18.2363 43.4283 18.2363 42.4107V33.303C18.2363 32.2853 19.0677 31.4575 20.0898 31.4575H29.2254C30.2474 31.4575 31.0789 32.2854 31.0789 33.303V36.7553C31.0789 37.6624 32.4853 37.6624 32.4853 36.7553V33.3031C32.4853 31.5099 31.0229 30.0511 29.2254 30.0511H22.9517C22.9571 29.9633 22.9598 26.4114 22.9598 26.4114C23.5798 26.6607 24.2446 26.7903 24.9283 26.7903H32.7839V30.2371C32.7839 30.7997 33.4659 31.1385 33.9144 30.7956L39.1507 26.7903H41.2531C44.1599 26.7903 46.5248 24.4317 46.5248 21.5325V5.2577C46.5247 2.35862 44.1598 0 41.2531 0Z" fill="#435F9C"/>
<path d="M34.849 5.19557C33.9561 4.96763 33.0462 5.67311 33.0462 6.59574C33.0462 7.60379 32.6789 8.57528 32.0123 9.33073L30.0748 11.5232C29.9493 11.3307 29.7325 11.2033 29.4857 11.2033H25.7032C25.3148 11.2033 25 11.5181 25 11.9065V20.417C25 20.8053 25.3148 21.1202 25.7032 21.1202H29.4857C29.7698 21.1202 30.014 20.9513 30.1249 20.7088C30.8907 21.1767 31.7781 21.4297 32.6809 21.4297H39.3655C40.387 21.4297 41.2296 20.5434 41.1817 19.5245C41.1604 19.0733 41.1837 13.015 41.1837 12.8804C41.1837 11.8779 40.368 11.0622 39.3676 11.0622L35.8915 11.0518L36.0354 10.7109C36.6932 9.15324 36.5849 7.34697 35.7461 5.87892C35.5503 5.53593 35.2316 5.29337 34.849 5.19557C35.2316 5.29337 34.4663 5.09787 34.849 5.19557C35.2316 5.29337 33.9562 4.96763 34.849 5.19557ZM28.7824 19.7137H26.4065V12.6097H28.7824V19.7137ZM39.3655 12.4685C39.5926 12.4685 39.7773 12.6532 39.7773 12.8803C39.7773 13.0141 39.7759 13.3773 39.774 13.8696C39.7636 16.588 39.7567 19.1626 39.7768 19.5905C39.7841 19.745 39.709 19.8479 39.6636 19.8955C39.585 19.9779 39.4792 20.0232 39.3655 20.0232H32.6809C31.8841 20.0232 31.1043 19.747 30.4849 19.2457L30.1889 19.006V13.5179L33.0666 10.2616C33.9604 9.24859 34.4527 7.94669 34.4527 6.59565C34.4527 6.55589 34.507 6.54558 34.525 6.57652C35.1478 7.66633 35.228 9.00725 34.7398 10.1636L34.1848 11.4781C34.0932 11.695 34.1163 11.9432 34.2459 12.1395C34.3758 12.3359 34.5952 12.4542 34.8305 12.4549L39.3655 12.4685Z" fill="#FF9B00"/>
<path d="M7.4962 24.4251C7.10773 24.4251 6.79297 24.74 6.79297 25.1284C6.79297 25.5167 7.10773 25.8316 7.4962 25.8316H9.56912L9.18188 28.1737C9.11849 28.5568 9.37784 28.9189 9.76096 28.9822C9.79987 28.9887 9.83841 28.9918 9.87648 28.9918C10.2144 28.9918 10.5125 28.7476 10.5695 28.4032L10.9946 25.8317H12.6911L12.3038 28.1738C12.2404 28.5569 12.4998 28.919 12.8829 28.9823C12.9218 28.9888 12.9604 28.9919 12.9984 28.9919C13.3364 28.9919 13.6344 28.7476 13.6914 28.4033L14.1166 25.8318H16.9382C17.3266 25.8318 17.6414 25.5169 17.6414 25.1286C17.6414 24.7402 17.3266 24.4253 16.9382 24.4253H14.3491L14.6327 22.7098H16.9382C17.3266 22.7098 17.6414 22.395 17.6414 22.0066C17.6414 21.6182 17.3266 21.3034 16.9382 21.3034H14.8653L15.2525 18.9613C15.3159 18.5781 15.0565 18.2161 14.6734 18.1527C14.2898 18.0892 13.9283 18.3487 13.8649 18.7318L13.4398 21.3033H11.7433L12.1306 18.9612C12.1939 18.5781 11.9346 18.216 11.5515 18.1526C11.1674 18.0891 10.8064 18.3486 10.7429 18.7317L10.3178 21.3032H7.4962C7.10773 21.3032 6.79297 21.6181 6.79297 22.0064C6.79297 22.3948 7.10773 22.7096 7.4962 22.7096H10.0853L9.80165 24.4251H7.4962ZM11.5109 22.7096H13.2073L12.9237 24.4251H11.2272L11.5109 22.7096Z" fill="#FF9B00"/>
<path d="M24.6493 35.086C24.0815 34.6185 23.326 34.4341 22.5682 34.6183C21.5971 34.8541 20.6172 35.7619 20.6172 37.2583C20.6172 38.1897 20.9571 38.9981 21.6563 39.7298C22.2274 40.3276 23.0516 40.896 24.3284 41.5729C24.4315 41.6276 24.5447 41.6549 24.6578 41.6549C24.771 41.6549 24.8842 41.6276 24.9872 41.5729C27.2149 40.392 28.6984 39.2063 28.6984 37.2583C28.6984 35.7538 27.6837 34.8552 26.678 34.6322C25.9224 34.4645 25.1899 34.6425 24.6493 35.086ZM27.2918 37.2583C27.2918 38.309 26.5949 39.086 24.6577 40.1524C22.7206 39.086 22.0235 38.3089 22.0235 37.2583C22.0235 36.4765 22.4762 36.088 22.9 35.985C22.9781 35.9661 23.0617 35.9554 23.1477 35.9554C23.4664 35.9554 23.8168 36.1026 24.0328 36.5214C24.1559 36.7598 24.4048 36.9075 24.6717 36.902C24.9398 36.8967 25.1816 36.7393 25.295 36.4963C25.5225 36.0085 26.0011 35.9227 26.3731 36.0053C26.8174 36.1037 27.2918 36.4847 27.2918 37.2583Z" fill="#FF9B00"/>
</g>
<defs>
<clipPath id="clip0_15325_1461">
<rect width="48" height="48" fill="white"/>
</clipPath>
</defs>
</svg>
