<svg width="48" height="48" viewBox="0 0 48 48" fill="none" xmlns="http://www.w3.org/2000/svg">
<g id="fi_3828258">
<g id="outline">
<path id="Vector" d="M41.85 45V45.15H42H45.75C45.9091 45.15 46.0617 45.2132 46.1743 45.3257C46.2868 45.4383 46.35 45.5909 46.35 45.75C46.35 45.9091 46.2868 46.0617 46.1743 46.1743C46.0617 46.2868 45.9091 46.35 45.75 46.35H2.25C2.09087 46.35 1.93826 46.2868 1.82574 46.1743C1.71321 46.0617 1.65 45.9091 1.65 45.75C1.65 45.5909 1.71321 45.4383 1.82574 45.3257C1.93826 45.2132 2.09087 45.15 2.25 45.15H6H6.15V45V32.25C6.15 32.0909 6.21321 31.9383 6.32574 31.8257C6.43826 31.7132 6.59087 31.65 6.75 31.65H11.25C11.4091 31.65 11.5617 31.7132 11.6743 31.8257C11.7868 31.9383 11.85 32.0909 11.85 32.25V45V45.15H12H13.5H13.65V45V29.25C13.65 29.0909 13.7132 28.9383 13.8257 28.8257C13.9383 28.7132 14.0909 28.65 14.25 28.65H18.75C18.9091 28.65 19.0617 28.7132 19.1743 28.8257C19.2868 28.9383 19.35 29.0909 19.35 29.25V45V45.15H19.5H21H21.15V45V26.25C21.15 26.0909 21.2132 25.9383 21.3257 25.8257C21.4383 25.7132 21.5909 25.65 21.75 25.65H26.25C26.4091 25.65 26.5617 25.7132 26.6743 25.8257C26.7868 25.9383 26.85 26.0909 26.85 26.25V45V45.15H27H28.5H28.65V45V28.5C28.65 28.3409 28.7132 28.1883 28.8257 28.0757C28.9383 27.9632 29.0909 27.9 29.25 27.9H33.75C33.9091 27.9 34.0617 27.9632 34.1743 28.0757C34.2868 28.1883 34.35 28.3409 34.35 28.5V45V45.15H34.5H36H36.15V45V22.5C36.15 22.3409 36.2132 22.1883 36.3257 22.0757C36.4383 21.9632 36.5909 21.9 36.75 21.9H41.25C41.4091 21.9 41.5617 21.9632 41.6743 22.0757C41.7868 22.1883 41.85 22.3409 41.85 22.5V45ZM7.35 45V45.15H7.5H10.5H10.65V45V33V32.85H10.5H7.5H7.35V33V45ZM14.85 45V45.15H15H18H18.15V45V30V29.85H18H15H14.85V30V45ZM22.35 45V45.15H22.5H25.5H25.65V45V27V26.85H25.5H22.5H22.35V27V45ZM29.85 45V45.15H30H33H33.15V45V29.25V29.1H33H30H29.85V29.25V45ZM37.35 45V45.15H37.5H40.5H40.65V45V23.25V23.1H40.5H37.5H37.35V23.25V45Z" fill="#435F9C" stroke="white" stroke-width="0.3"/>
<g id="Vector_2">
<mask id="path-2-inside-1_14949_4864" fill="white">
<path d="M3.75015 30.75C3.8516 30.75 3.95198 30.7293 4.04518 30.6892L7.34678 29.2743C7.65342 29.6075 8.05351 29.8404 8.4947 29.9424C8.93589 30.0445 9.39761 30.011 9.81943 29.8462C10.2412 29.6815 10.6035 29.3933 10.8588 29.0192C11.1141 28.6452 11.2505 28.2028 11.2502 27.75C11.2502 27.7193 11.249 27.6891 11.2478 27.6587L14.8103 26.2337C15.1118 26.5779 15.5111 26.8219 15.9549 26.9331C16.3987 27.0444 16.8659 27.0176 17.2941 26.8563C17.7223 26.6951 18.0911 26.4071 18.3512 26.0307C18.6114 25.6543 18.7506 25.2075 18.7502 24.75C18.7502 24.7193 18.749 24.6891 18.7478 24.6587L22.3103 23.2337C22.5322 23.4871 22.8083 23.6874 23.1181 23.8197C23.4279 23.9519 23.7635 24.0128 24.1001 23.9979C24.4366 23.9829 24.7655 23.8924 25.0623 23.7331C25.3591 23.5738 25.6163 23.3498 25.8149 23.0777L29.2525 24.1089C29.2682 24.439 29.3564 24.7615 29.5108 25.0536C29.6652 25.3457 29.882 25.6002 30.1459 25.799C30.4097 25.9979 30.7142 26.1362 31.0375 26.2041C31.3608 26.272 31.6952 26.2679 32.0167 26.192C32.3383 26.1161 32.6392 25.9703 32.8981 25.765C33.1569 25.5597 33.3674 25.2999 33.5146 25.0041C33.6617 24.7082 33.7419 24.3836 33.7494 24.0533C33.7569 23.723 33.6916 23.3951 33.5581 23.0929L37.7674 19.1311C38.1899 19.4085 38.6935 19.5355 39.1969 19.4915C39.7004 19.4476 40.1744 19.2353 40.5424 18.8889C40.9104 18.5426 41.151 18.0823 41.2253 17.5824C41.2997 17.0825 41.2034 16.5722 40.9521 16.1337L43.5002 13.7358V14.25C43.5002 14.4489 43.5792 14.6397 43.7198 14.7803C43.8605 14.921 44.0512 15 44.2502 15C44.4491 15 44.6398 14.921 44.7805 14.7803C44.9211 14.6397 45.0002 14.4489 45.0002 14.25V12C45.0002 11.8011 44.9211 11.6103 44.7805 11.4697C44.6398 11.329 44.4491 11.25 44.2502 11.25H42.0002C41.8012 11.25 41.6105 11.329 41.4698 11.4697C41.3292 11.6103 41.2502 11.8011 41.2502 12C41.2502 12.1989 41.3292 12.3897 41.4698 12.5303C41.6105 12.671 41.8012 12.75 42.0002 12.75H42.359L39.8083 15.1507C39.4128 14.9982 38.9824 14.9606 38.5665 15.0422C38.1506 15.1237 37.7662 15.321 37.4576 15.6115C37.149 15.9019 36.9287 16.2736 36.8221 16.6838C36.7155 17.094 36.727 17.5259 36.8552 17.9299L32.5299 22.0007C32.0536 21.7545 31.5049 21.6869 30.983 21.8101C30.4612 21.9333 30.0007 22.2392 29.6848 22.6725L26.2472 21.6412C26.217 21.056 25.9596 20.5055 25.5298 20.1071C25.1 19.7087 24.5316 19.4937 23.9457 19.5078C23.3598 19.522 22.8026 19.7642 22.3925 20.183C21.9825 20.6017 21.752 21.1639 21.7502 21.75C21.7502 21.7807 21.7513 21.811 21.7525 21.8413L18.19 23.2663C17.8885 22.9221 17.4892 22.6781 17.0454 22.5669C16.6016 22.4556 16.1344 22.4824 15.7062 22.6437C15.278 22.8049 14.9092 23.0929 14.6491 23.4693C14.3889 23.8457 14.2497 24.2925 14.2502 24.75C14.2502 24.7807 14.2513 24.8109 14.2525 24.8413L10.69 26.2663C10.3885 25.9221 9.98921 25.6781 9.5454 25.5669C9.1016 25.4556 8.63441 25.4824 8.20623 25.6437C7.77804 25.8049 7.40924 26.0929 7.14907 26.4693C6.88889 26.8457 6.74972 27.2925 6.75015 27.75C6.75015 27.7991 6.75231 27.8477 6.7554 27.8961L3.45475 29.3106C3.29593 29.3786 3.16547 29.4993 3.08541 29.6524C3.00534 29.8055 2.98058 29.9815 3.01531 30.1508C3.05004 30.32 3.14214 30.4721 3.27602 30.5812C3.40991 30.6904 3.57739 30.75 3.75015 30.75ZM39.0002 16.5C39.1485 16.5 39.2935 16.544 39.4168 16.6264C39.5402 16.7088 39.6363 16.8259 39.6931 16.963C39.7498 17.1 39.7647 17.2508 39.7357 17.3963C39.7068 17.5418 39.6354 17.6754 39.5305 17.7803C39.4256 17.8852 39.292 17.9567 39.1465 17.9856C39.001 18.0145 38.8502 17.9997 38.7131 17.9429C38.5761 17.8861 38.459 17.79 38.3765 17.6667C38.2941 17.5433 38.2502 17.3983 38.2502 17.25C38.2504 17.0512 38.3295 16.8605 38.4701 16.7199C38.6107 16.5793 38.8013 16.5002 39.0002 16.5ZM31.5002 23.25C31.6485 23.25 31.7935 23.294 31.9168 23.3764C32.0402 23.4588 32.1363 23.5759 32.1931 23.713C32.2498 23.85 32.2647 24.0008 32.2357 24.1463C32.2068 24.2918 32.1354 24.4254 32.0305 24.5303C31.9256 24.6352 31.792 24.7066 31.6465 24.7356C31.501 24.7645 31.3502 24.7497 31.2131 24.6929C31.0761 24.6361 30.959 24.54 30.8765 24.4167C30.7941 24.2933 30.7502 24.1483 30.7502 24C30.7504 23.8012 30.8295 23.6105 30.9701 23.4699C31.1107 23.3293 31.3013 23.2502 31.5002 23.25ZM24.0002 21C24.1485 21 24.2935 21.044 24.4168 21.1264C24.5402 21.2088 24.6363 21.3259 24.6931 21.463C24.7498 21.6 24.7647 21.7508 24.7357 21.8963C24.7068 22.0418 24.6354 22.1754 24.5305 22.2803C24.4256 22.3852 24.292 22.4566 24.1465 22.4856C24.001 22.5145 23.8502 22.4997 23.7131 22.4429C23.5761 22.3861 23.459 22.29 23.3765 22.1667C23.2941 22.0433 23.2502 21.8983 23.2502 21.75C23.2504 21.5512 23.3295 21.3605 23.4701 21.2199C23.6107 21.0793 23.8013 21.0002 24.0002 21ZM16.5002 24C16.6485 24 16.7935 24.044 16.9168 24.1264C17.0402 24.2088 17.1363 24.3259 17.1931 24.463C17.2498 24.6 17.2647 24.7508 17.2357 24.8963C17.2068 25.0418 17.1354 25.1754 17.0305 25.2803C16.9256 25.3852 16.792 25.4566 16.6465 25.4856C16.501 25.5145 16.3502 25.4997 16.2131 25.4429C16.0761 25.3861 15.959 25.29 15.8765 25.1667C15.7941 25.0433 15.7502 24.8983 15.7502 24.75C15.7504 24.5512 15.8295 24.3605 15.9701 24.2199C16.1107 24.0793 16.3013 24.0002 16.5002 24ZM9.00015 27C9.14849 27 9.29349 27.044 9.41683 27.1264C9.54017 27.2088 9.6363 27.3259 9.69306 27.463C9.74983 27.6 9.76468 27.7508 9.73574 27.8963C9.7068 28.0418 9.63537 28.1754 9.53048 28.2803C9.42559 28.3852 9.29195 28.4566 9.14647 28.4856C9.00098 28.5145 8.85018 28.4997 8.71314 28.4429C8.57609 28.3861 8.45896 28.29 8.37655 28.1667C8.29414 28.0433 8.25015 27.8983 8.25015 27.75C8.25037 27.5512 8.32946 27.3605 8.47007 27.2199C8.61067 27.0793 8.80131 27.0002 9.00015 27Z"/>
</mask>
<path d="M3.75015 30.75C3.8516 30.75 3.95198 30.7293 4.04518 30.6892L7.34678 29.2743C7.65342 29.6075 8.05351 29.8404 8.4947 29.9424C8.93589 30.0445 9.39761 30.011 9.81943 29.8462C10.2412 29.6815 10.6035 29.3933 10.8588 29.0192C11.1141 28.6452 11.2505 28.2028 11.2502 27.75C11.2502 27.7193 11.249 27.6891 11.2478 27.6587L14.8103 26.2337C15.1118 26.5779 15.5111 26.8219 15.9549 26.9331C16.3987 27.0444 16.8659 27.0176 17.2941 26.8563C17.7223 26.6951 18.0911 26.4071 18.3512 26.0307C18.6114 25.6543 18.7506 25.2075 18.7502 24.75C18.7502 24.7193 18.749 24.6891 18.7478 24.6587L22.3103 23.2337C22.5322 23.4871 22.8083 23.6874 23.1181 23.8197C23.4279 23.9519 23.7635 24.0128 24.1001 23.9979C24.4366 23.9829 24.7655 23.8924 25.0623 23.7331C25.3591 23.5738 25.6163 23.3498 25.8149 23.0777L29.2525 24.1089C29.2682 24.439 29.3564 24.7615 29.5108 25.0536C29.6652 25.3457 29.882 25.6002 30.1459 25.799C30.4097 25.9979 30.7142 26.1362 31.0375 26.2041C31.3608 26.272 31.6952 26.2679 32.0167 26.192C32.3383 26.1161 32.6392 25.9703 32.8981 25.765C33.1569 25.5597 33.3674 25.2999 33.5146 25.0041C33.6617 24.7082 33.7419 24.3836 33.7494 24.0533C33.7569 23.723 33.6916 23.3951 33.5581 23.0929L37.7674 19.1311C38.1899 19.4085 38.6935 19.5355 39.1969 19.4915C39.7004 19.4476 40.1744 19.2353 40.5424 18.8889C40.9104 18.5426 41.151 18.0823 41.2253 17.5824C41.2997 17.0825 41.2034 16.5722 40.9521 16.1337L43.5002 13.7358V14.25C43.5002 14.4489 43.5792 14.6397 43.7198 14.7803C43.8605 14.921 44.0512 15 44.2502 15C44.4491 15 44.6398 14.921 44.7805 14.7803C44.9211 14.6397 45.0002 14.4489 45.0002 14.25V12C45.0002 11.8011 44.9211 11.6103 44.7805 11.4697C44.6398 11.329 44.4491 11.25 44.2502 11.25H42.0002C41.8012 11.25 41.6105 11.329 41.4698 11.4697C41.3292 11.6103 41.2502 11.8011 41.2502 12C41.2502 12.1989 41.3292 12.3897 41.4698 12.5303C41.6105 12.671 41.8012 12.75 42.0002 12.75H42.359L39.8083 15.1507C39.4128 14.9982 38.9824 14.9606 38.5665 15.0422C38.1506 15.1237 37.7662 15.321 37.4576 15.6115C37.149 15.9019 36.9287 16.2736 36.8221 16.6838C36.7155 17.094 36.727 17.5259 36.8552 17.9299L32.5299 22.0007C32.0536 21.7545 31.5049 21.6869 30.983 21.8101C30.4612 21.9333 30.0007 22.2392 29.6848 22.6725L26.2472 21.6412C26.217 21.056 25.9596 20.5055 25.5298 20.1071C25.1 19.7087 24.5316 19.4937 23.9457 19.5078C23.3598 19.522 22.8026 19.7642 22.3925 20.183C21.9825 20.6017 21.752 21.1639 21.7502 21.75C21.7502 21.7807 21.7513 21.811 21.7525 21.8413L18.19 23.2663C17.8885 22.9221 17.4892 22.6781 17.0454 22.5669C16.6016 22.4556 16.1344 22.4824 15.7062 22.6437C15.278 22.8049 14.9092 23.0929 14.6491 23.4693C14.3889 23.8457 14.2497 24.2925 14.2502 24.75C14.2502 24.7807 14.2513 24.8109 14.2525 24.8413L10.69 26.2663C10.3885 25.9221 9.98921 25.6781 9.5454 25.5669C9.1016 25.4556 8.63441 25.4824 8.20623 25.6437C7.77804 25.8049 7.40924 26.0929 7.14907 26.4693C6.88889 26.8457 6.74972 27.2925 6.75015 27.75C6.75015 27.7991 6.75231 27.8477 6.7554 27.8961L3.45475 29.3106C3.29593 29.3786 3.16547 29.4993 3.08541 29.6524C3.00534 29.8055 2.98058 29.9815 3.01531 30.1508C3.05004 30.32 3.14214 30.4721 3.27602 30.5812C3.40991 30.6904 3.57739 30.75 3.75015 30.75ZM39.0002 16.5C39.1485 16.5 39.2935 16.544 39.4168 16.6264C39.5402 16.7088 39.6363 16.8259 39.6931 16.963C39.7498 17.1 39.7647 17.2508 39.7357 17.3963C39.7068 17.5418 39.6354 17.6754 39.5305 17.7803C39.4256 17.8852 39.292 17.9567 39.1465 17.9856C39.001 18.0145 38.8502 17.9997 38.7131 17.9429C38.5761 17.8861 38.459 17.79 38.3765 17.6667C38.2941 17.5433 38.2502 17.3983 38.2502 17.25C38.2504 17.0512 38.3295 16.8605 38.4701 16.7199C38.6107 16.5793 38.8013 16.5002 39.0002 16.5ZM31.5002 23.25C31.6485 23.25 31.7935 23.294 31.9168 23.3764C32.0402 23.4588 32.1363 23.5759 32.1931 23.713C32.2498 23.85 32.2647 24.0008 32.2357 24.1463C32.2068 24.2918 32.1354 24.4254 32.0305 24.5303C31.9256 24.6352 31.792 24.7066 31.6465 24.7356C31.501 24.7645 31.3502 24.7497 31.2131 24.6929C31.0761 24.6361 30.959 24.54 30.8765 24.4167C30.7941 24.2933 30.7502 24.1483 30.7502 24C30.7504 23.8012 30.8295 23.6105 30.9701 23.4699C31.1107 23.3293 31.3013 23.2502 31.5002 23.25ZM24.0002 21C24.1485 21 24.2935 21.044 24.4168 21.1264C24.5402 21.2088 24.6363 21.3259 24.6931 21.463C24.7498 21.6 24.7647 21.7508 24.7357 21.8963C24.7068 22.0418 24.6354 22.1754 24.5305 22.2803C24.4256 22.3852 24.292 22.4566 24.1465 22.4856C24.001 22.5145 23.8502 22.4997 23.7131 22.4429C23.5761 22.3861 23.459 22.29 23.3765 22.1667C23.2941 22.0433 23.2502 21.8983 23.2502 21.75C23.2504 21.5512 23.3295 21.3605 23.4701 21.2199C23.6107 21.0793 23.8013 21.0002 24.0002 21ZM16.5002 24C16.6485 24 16.7935 24.044 16.9168 24.1264C17.0402 24.2088 17.1363 24.3259 17.1931 24.463C17.2498 24.6 17.2647 24.7508 17.2357 24.8963C17.2068 25.0418 17.1354 25.1754 17.0305 25.2803C16.9256 25.3852 16.792 25.4566 16.6465 25.4856C16.501 25.5145 16.3502 25.4997 16.2131 25.4429C16.0761 25.3861 15.959 25.29 15.8765 25.1667C15.7941 25.0433 15.7502 24.8983 15.7502 24.75C15.7504 24.5512 15.8295 24.3605 15.9701 24.2199C16.1107 24.0793 16.3013 24.0002 16.5002 24ZM9.00015 27C9.14849 27 9.29349 27.044 9.41683 27.1264C9.54017 27.2088 9.6363 27.3259 9.69306 27.463C9.74983 27.6 9.76468 27.7508 9.73574 27.8963C9.7068 28.0418 9.63537 28.1754 9.53048 28.2803C9.42559 28.3852 9.29195 28.4566 9.14647 28.4856C9.00098 28.5145 8.85018 28.4997 8.71314 28.4429C8.57609 28.3861 8.45896 28.29 8.37655 28.1667C8.29414 28.0433 8.25015 27.8983 8.25015 27.75C8.25037 27.5512 8.32946 27.3605 8.47007 27.2199C8.61067 27.0793 8.80131 27.0002 9.00015 27Z" fill="#FF9A00" stroke="white" stroke-width="0.6" mask="url(#path-2-inside-1_14949_4864)"/>
</g>
<path id="Vector_3" d="M16.6415 17.0317H16.3522L18.2502 18.9235L18.1529 19.0377C18.1531 19.0379 18.1533 19.038 18.1535 19.0382C18.2733 19.1406 18.348 19.286 18.3615 19.443C18.375 19.6003 18.326 19.7566 18.225 19.878C18.124 19.9994 17.9793 20.0761 17.8222 20.0915C17.6653 20.1068 17.5087 20.0598 17.3862 19.9607C15.6214 18.4946 14.3937 16.4836 13.8962 14.2437C13.3987 12.0036 13.6597 9.66172 14.6382 7.58611C15.6166 5.51051 17.2572 3.81893 19.3018 2.7773C21.3465 1.73567 23.6793 1.40305 25.9336 1.83174L25.9336 1.83187L25.9397 1.83278C25.9555 1.8351 25.9716 1.83824 25.9882 1.84206L25.9882 1.84214L25.9929 1.84307C28.3459 2.30793 30.465 3.57429 31.989 5.42637C33.513 7.27845 34.3477 9.60166 34.3509 12.0002V12.0005C34.3559 13.3963 34.0761 14.7785 33.5286 16.0625C32.9811 17.3465 32.1775 18.5053 31.1667 19.468L31.1663 19.4683C31.0515 19.5785 30.8976 19.6386 30.7385 19.6353C30.5794 19.632 30.4281 19.5657 30.3179 19.4509C30.2077 19.336 30.1477 19.1821 30.1509 19.023C30.1542 18.8639 30.2206 18.7126 30.3354 18.6025C30.7601 18.1952 31.1451 17.7486 31.4852 17.2684L31.6529 17.0317H31.3628H28.0755H27.9544L27.9289 17.15C27.8002 17.745 27.6483 18.3356 27.4729 18.9219L27.4727 18.9227C27.4505 18.9986 27.4135 19.0694 27.3638 19.1309C27.3142 19.1925 27.2528 19.2436 27.1833 19.2814L27.2549 19.4132L27.1833 19.2814C27.1138 19.3191 27.0376 19.3428 26.9589 19.3509C26.8802 19.3591 26.8007 19.3517 26.725 19.329C26.6492 19.3064 26.5786 19.2689 26.5174 19.2189C26.4561 19.1689 26.4054 19.1073 26.368 19.0375C26.3306 18.9678 26.3074 18.8914 26.2997 18.8127C26.292 18.734 26.2999 18.6546 26.323 18.5789L26.3234 18.5778C26.4575 18.1263 26.5778 17.6723 26.6842 17.2158L26.7272 17.0317H26.5382H21.4634H21.2747L21.3172 17.2155C21.423 17.6726 21.5434 18.1268 21.6784 18.5781L21.6786 18.5789C21.7017 18.6546 21.7096 18.734 21.7019 18.8127C21.6942 18.8914 21.671 18.9678 21.6336 19.0375C21.5963 19.1073 21.5455 19.1689 21.4843 19.2189C21.423 19.2689 21.3524 19.3064 21.2767 19.329C21.2009 19.3517 21.1214 19.3591 21.0427 19.3509C20.9641 19.3428 20.8878 19.3191 20.8183 19.2814L20.7467 19.4132L20.8183 19.2814C20.7488 19.2436 20.6875 19.1925 20.6378 19.1309C20.5882 19.0694 20.5511 18.9986 20.5289 18.9227L20.5288 18.9221C20.3544 18.3352 20.2025 17.7444 20.0728 17.1498L20.0471 17.0317H19.9263H16.6415ZM16.0235 15.8317H16.0236H19.6481H19.8228L19.7964 15.659C19.6488 14.6941 19.5598 13.7211 19.5298 12.7454L19.5253 12.6H19.3799H15.0319H14.869L14.8825 12.7624C14.9687 13.8047 15.2336 14.8244 15.6654 15.777L15.72 15.8974L15.8463 15.8584C15.9037 15.8407 15.9634 15.8317 16.0235 15.8317ZM16.2495 7.28173H16.164L16.1204 7.35529C15.4193 8.53903 14.9962 9.86652 14.8829 11.2376L14.8695 11.4H15.0324H19.3805H19.526L19.5305 11.2546C19.5696 9.98064 19.7093 8.71178 19.9482 7.45985L19.9823 7.28173H19.8009H16.2495ZM32.9694 11.4H33.1323L33.1189 11.2376C33.0057 9.86655 32.5827 8.53907 31.8817 7.3553L31.8381 7.28173H31.7526H28.2009H28.0195L28.0536 7.45987C28.2927 8.71179 28.4325 9.98065 28.4718 11.2546L28.4763 11.4H28.6218H32.9694ZM27.1212 11.4H27.2762L27.2711 11.245C27.2286 9.95351 27.0774 8.66785 26.8189 7.40173L26.7944 7.28173H26.6719H21.3304H21.208L21.1835 7.40172C20.925 8.66784 20.7736 9.95349 20.731 11.245L20.7259 11.4H20.8809H27.1212ZM21.0184 15.7059L21.039 15.8317H21.1665H26.8354H26.9629L26.9835 15.7059C27.1428 14.7294 27.239 13.7437 27.2713 12.7549L27.2764 12.6H27.1214H20.8807H20.7258L20.7308 12.7549C20.763 13.7437 20.8591 14.7294 21.0184 15.7059ZM31.9782 15.8317H31.9782C32.0396 15.8317 32.1007 15.8412 32.1592 15.8597L32.2863 15.9001L32.3413 15.7786C32.7727 14.8255 33.036 13.8049 33.1195 12.7619L33.1325 12.6H32.97H28.6221H28.4766L28.4722 12.7454C28.4423 13.7211 28.3534 14.6941 28.2057 15.659L28.1793 15.8317H28.354H31.9782ZM30.6415 6.08173H30.9817L30.7523 5.83056C29.7683 4.75344 28.5418 3.92632 27.1744 3.41776L26.8681 3.30383L26.9814 3.61037C27.2673 4.38352 27.5135 5.1708 27.7189 5.96911L27.7479 6.08173H27.8642H30.6415ZM25.464 3.03914L25.3375 3.09274L25.3481 2.94929C24.4552 2.81687 23.5476 2.81687 22.6547 2.94929L22.5714 2.96163L22.5386 3.03913C22.1453 3.96718 21.8136 4.92016 21.5457 5.89186L21.4934 6.08173H21.6903H26.3122H26.5092L26.4568 5.89185C26.1889 4.92017 25.8572 3.96721 25.464 3.03914ZM21.0211 3.61023L21.1346 3.30363L20.8282 3.41757C19.4605 3.92609 18.2337 4.75328 17.2496 5.83056L17.0201 6.08173H17.3603H20.1378H20.254L20.283 5.96913C20.4886 5.17073 20.7349 4.3834 21.0211 3.61023Z" fill="#435F9C" stroke="white" stroke-width="0.3"/>
</g>
</g>
</svg>
