<svg width="48" height="48" viewBox="0 0 48 48" fill="none" xmlns="http://www.w3.org/2000/svg">
<g clip-path="url(#clip0_15325_3006)">
<path d="M46.79 32.49C35.17 12.37 29.79 2.21001 28.69 3.31001C27.6497 2.67697 26.4917 2.26166 25.2861 2.08922C24.0805 1.91678 22.8525 1.9908 21.6764 2.30679C20.5003 2.62279 19.4006 3.1742 18.4438 3.92762C17.487 4.68104 16.693 5.62081 16.11 6.69001C14.59 9.29001 21.57 -2.78999 1.29003 32.35C0.441924 33.7525 -0.00433426 35.3611 3.17314e-05 37C3.17314e-05 46.19 12.22 49.42 16.79 41.5C17.5 40.26 14.23 45.94 24 29L31.2 41.5C32.3935 43.5674 34.3594 45.076 36.6651 45.6939C38.9709 46.3118 41.4277 45.9885 43.495 44.795C45.5624 43.6015 47.071 41.6357 47.6889 39.3299C48.3068 37.0242 47.9835 34.5674 46.79 32.5V32.49ZM9.00003 44C7.77061 44.0014 6.56251 43.6789 5.49729 43.0651C4.43207 42.4513 3.54729 41.5678 2.93199 40.5034C2.31668 39.439 1.99255 38.2314 1.99221 37.002C1.99186 35.7725 2.31532 34.5647 2.93003 33.5C2.95579 33.458 2.97916 33.4146 3.00003 33.37C7.21003 26.42 18.15 31.15 15.64 39.11C15.1934 40.523 14.3098 41.7578 13.1165 42.6366C11.9233 43.5153 10.4819 43.9927 9.00003 44ZM17.89 35.6C17.6812 34.2746 17.1787 33.0127 16.4193 31.9066C15.6599 30.8004 14.6628 29.8781 13.5009 29.207C12.339 28.536 11.0418 28.1332 9.70419 28.0282C8.36658 27.9232 7.0224 28.1185 5.77003 28.6L15.11 12.42C15.48 14.76 16.18 15.48 22.84 27.03L17.89 35.6ZM39 44C37.7716 43.9996 36.565 43.676 35.5013 43.0616C34.4375 42.4473 33.5542 41.5638 32.94 40.5C16.38 11.82 17 13.52 17 11C17.0008 9.78234 17.3192 8.58592 17.9237 7.52893C18.5283 6.47194 19.3981 5.59094 20.4473 4.97293C21.4965 4.35493 22.6888 4.0213 23.9064 4.00501C25.1239 3.98871 26.3247 4.29031 27.39 4.88001C29.51 5.82001 29.19 6.00001 45 33.37C45.6445 34.4327 45.9945 35.6477 46.0139 36.8904C46.0334 38.1331 45.7217 39.3585 45.1108 40.4408C44.4999 41.5232 43.6118 42.4233 42.5379 43.0488C41.464 43.6743 40.2429 44.0026 39 44Z" fill="#435F9C"/>
<circle opacity="0.8" cx="8.57115" cy="37.1429" r="7.42857" fill="#FF9B00"/>
</g>
<defs>
<clipPath id="clip0_15325_3006">
<rect width="48" height="48" fill="white"/>
</clipPath>
</defs>
</svg>
