<svg width="48" height="48" viewBox="0 0 48 48" fill="none" xmlns="http://www.w3.org/2000/svg">
<g id="fi_4891937" clip-path="url(#clip0_14949_4835)">
<g id="Group">
<path id="Vector" d="M32.4374 5.52498H32.3374V5.62498V6.56247C32.3374 8.05805 31.1205 9.27496 29.6249 9.27496H18.375C16.8795 9.27496 15.6625 8.05805 15.6625 6.56247V5.62498V5.52498H15.5625H9.93748H9.83748V5.62498V42.3749V42.4749H9.93748H38.0624H38.1624V42.3749V5.62498V5.52498H38.0624H32.4374ZM17.4375 5.52498H17.3375V5.62498V6.56247C17.3375 7.13464 17.8029 7.59997 18.375 7.59997H29.6249C30.1884 7.59997 30.6624 7.12582 30.6624 6.56247V5.62498V5.52498H30.5624H17.4375ZM17.3375 3.74999V3.84999H17.4375H30.5624H30.6624V3.74999V1.87499V1.77499H30.5624H17.4375H17.3375V1.87499V3.74999ZM15.6625 1.87499V1.77499H15.5625H7.12499C6.55283 1.77499 6.08749 2.24033 6.08749 2.81249V45.1875C6.08749 45.7597 6.55283 46.225 7.12499 46.225H40.875C41.4471 46.225 41.9124 45.7597 41.9124 45.1875V2.81249C41.9124 2.24034 41.4471 1.77499 40.875 1.77499H32.4374H32.3374V1.87499V3.74999V3.84999H32.4374H38.9999C39.4623 3.84999 39.8374 4.22494 39.8374 4.68748V43.3124C39.8374 43.775 39.4623 44.1499 38.9999 44.1499H8.99998C8.53743 44.1499 8.16249 43.775 8.16249 43.3124V4.68748C8.16249 4.22493 8.53743 3.84999 8.99998 3.84999H15.5625H15.6625V3.74999V1.87499ZM7.12499 0.1H40.875C42.3704 0.1 43.5873 1.31691 43.5873 2.81249V45.1875C43.5873 46.6831 42.3704 47.9 40.875 47.9H7.12499C5.62941 47.9 4.4125 46.6831 4.4125 45.1875V2.81249C4.4125 1.31691 5.62941 0.1 7.12499 0.1Z" fill="#435F9C" stroke="white" stroke-width="0.2"/>
<path id="Vector_2" d="M13.9621 23.7705C14.3283 24.1366 14.9218 24.1366 15.288 23.7705L19.9333 19.1252L24.1229 23.3148C24.4891 23.6809 25.0825 23.6809 25.4488 23.3148L32.4377 16.3259V17.9264C32.4872 19.1703 34.2635 19.1693 34.3127 17.9264V14.0625C34.3127 13.5447 33.8929 13.125 33.3752 13.125H29.5113C28.2674 13.1746 28.2683 14.9509 29.5113 15H31.1118L24.7859 21.326L20.5963 17.1364C20.2302 16.7703 19.6366 16.7703 19.2704 17.1364L13.9621 22.4447C13.596 22.8108 13.596 23.4044 13.9621 23.7705Z" fill="#FF9A00"/>
<path id="Vector_3" d="M14.6279 38.525C13.5153 38.4793 13.515 36.8961 14.6279 36.85H33.3739C34.4866 36.8958 34.4867 38.4789 33.3739 38.525H14.6279Z" fill="#FF9A00" stroke="white" stroke-width="0.2"/>
<path id="Vector_4" d="M14.6279 34.775C13.5153 34.7293 13.515 33.1461 14.6279 33.1H33.3739C34.4866 33.1458 34.4867 34.7289 33.3739 34.775H14.6279Z" fill="#FF9A00" stroke="white" stroke-width="0.2"/>
<path id="Vector_5" d="M14.6279 31.025C13.5153 30.9793 13.515 29.3961 14.6279 29.35H33.3739C34.4866 29.3958 34.4867 30.9789 33.3739 31.025H14.6279Z" fill="#FF9A00" stroke="white" stroke-width="0.2"/>
</g>
</g>
<defs>
<clipPath id="clip0_14949_4835">
<rect width="48" height="48" fill="white"/>
</clipPath>
</defs>
</svg>
