<svg width="48" height="48" viewBox="0 0 48 48" fill="none" xmlns="http://www.w3.org/2000/svg">
<g id="fi_923621" clip-path="url(#clip0_14949_4805)">
<g id="Group">
<g id="Group_2">
<path id="Vector" d="M9.92704 33.026L12.0282 30.9247C13.4219 32.8713 15.1286 34.578 17.0753 35.9717L14.9741 38.073L9.92704 33.026Z" stroke="#435F9C" stroke-width="1.3"/>
</g>
</g>
<g id="Group_3">
<g id="Group_4">
<path id="Vector_2" d="M1.69529 46.3048L1.69528 46.3048C0.301581 44.9112 0.301562 42.6516 1.69529 41.2579L7.0193 35.9339L12.0663 40.9809L6.74231 46.3048L7.20192 46.7644L6.7423 46.3048C5.34858 47.6985 3.08901 47.6985 1.69529 46.3048Z" stroke="#435F9C" stroke-width="1.3"/>
</g>
</g>
<g id="Group_5">
<g id="Group_6">
<path id="Vector_3" d="M33.9375 16.875C33.1621 16.875 32.5312 17.5058 32.5312 18.2812C32.5312 19.0567 33.1621 19.6875 33.9375 19.6875C34.7129 19.6875 35.3438 19.0567 35.3438 18.2812C35.3438 17.5058 34.7129 16.875 33.9375 16.875Z" fill="#FF9A00"/>
</g>
</g>
<g id="Group_7">
<g id="Group_8">
<path id="Vector_4" d="M26.5025 23.8893H26.9462V23.4455V20.7693H29.5878C30.3689 22.6006 32.1865 23.8893 34.3025 23.8893C37.1281 23.8893 39.4262 21.5912 39.4262 18.7656C39.4262 15.94 37.1281 13.6419 34.3025 13.6419C32.1865 13.6419 30.3689 14.9305 29.5878 16.7618H20.2626H19.8188V17.2056V20.3255V20.7693H20.2626H22.9388V23.4455V23.8893H23.3825H26.5025ZM17.5863 18.7656C17.5863 12.1292 22.9861 6.72937 29.6225 6.72937C36.2589 6.72937 41.6587 12.1292 41.6587 18.7656C41.6587 25.4019 36.2588 30.8017 29.6225 30.8017C22.9861 30.8017 17.5863 25.4019 17.5863 18.7656Z" stroke="#FF9A00" stroke-width="0.88746"/>
</g>
</g>
<g id="Group_9">
<g id="Group_10">
<path id="Vector_5" d="M12.0777 18.8525C12.0777 9.11512 19.9716 1.22129 29.709 1.22129C39.4466 1.22129 47.3402 9.11511 47.3402 18.8525C47.3402 28.59 39.4465 36.4838 29.709 36.4838C19.9715 36.4838 12.0777 28.59 12.0777 18.8525Z" stroke="#435F9C" stroke-width="1.3"/>
</g>
</g>
</g>
<defs>
<clipPath id="clip0_14949_4805">
<rect width="48" height="48" fill="white"/>
</clipPath>
</defs>
</svg>
