<svg width="48" height="48" viewBox="0 0 48 48" fill="none" xmlns="http://www.w3.org/2000/svg">
<g clip-path="url(#clip0_15325_3700)">
<mask id="path-1-outside-1_15325_3700" maskUnits="userSpaceOnUse" x="-0.574219" y="12.8594" width="49" height="35" fill="black">
<rect fill="white" x="-0.574219" y="12.8594" width="49" height="35"/>
<path d="M47.4539 28.3857L41.9994 14.9093C41.8321 14.4947 41.5194 14.1747 41.1048 14.0002C40.6903 13.8329 40.2321 13.8402 39.8248 14.022L35.5776 15.9129C34.8576 16.2184 34.4721 17.0038 34.6248 17.7529L33.4976 18.3857C33.1194 18.6038 32.6612 18.6838 32.2176 18.6257L24.3848 17.4693C23.0176 17.2729 21.6139 17.7238 20.6248 18.6766L20.0503 19.2293H15.7012C15.5048 19.2293 15.3085 19.1566 15.163 19.0257L14.7776 18.6984C15.0467 18.0366 14.8648 17.2657 14.283 16.8075L10.9958 14.2111C10.6467 13.9347 10.2103 13.8111 9.76666 13.8766C9.3303 13.9347 8.9303 14.1747 8.66848 14.5238L0.748478 25.2584C0.224842 25.9638 0.348478 26.9529 1.04666 27.5129L4.32666 30.102C4.62484 30.3347 4.97393 30.4511 5.33757 30.4511C5.4103 30.4511 5.4903 30.4438 5.56302 30.4366C5.99939 30.3784 6.39211 30.1457 6.65393 29.782L6.68302 29.7457L7.15575 30.102C7.43212 30.2984 7.59211 30.6329 7.59211 30.982V32.9384L6.3703 34.5093C5.27939 35.9275 5.52666 37.9711 6.93757 39.062C7.51212 39.5129 8.2103 39.7529 8.9303 39.7529C9.06121 39.7529 9.19939 39.7457 9.3303 39.7311C9.47575 39.7093 9.61393 39.6729 9.75212 39.6366C9.75212 39.6802 9.74484 39.7166 9.74484 39.7602C9.74484 40.6911 10.1667 41.5638 10.8939 42.1602C11.4612 42.6111 12.1448 42.8366 12.8212 42.8366C13.243 42.8366 13.6648 42.742 14.0576 42.5747V42.6111C14.1594 43.3747 14.5594 44.0511 15.1412 44.4802L15.2721 44.582C15.7667 44.9457 16.3558 45.142 16.9594 45.142C17.0976 45.142 17.2358 45.1347 17.3812 45.1129C17.6939 45.0693 17.9776 44.9602 18.2539 44.822C18.4067 45.6002 18.8503 46.2693 19.5121 46.6911L19.6067 46.7566C20.0794 47.0693 20.6248 47.2293 21.1776 47.2293C21.3812 47.2293 21.5776 47.2075 21.7812 47.1638C22.5448 47.0038 23.1921 46.5529 23.6212 45.8984L23.7448 45.7093C24.2612 46.102 24.8794 46.3057 25.5412 46.3057C26.3194 46.3057 27.083 45.9857 27.6358 45.4402C28.2394 44.8366 28.5594 43.9929 28.5012 43.142C28.5012 43.0911 28.4939 43.0329 28.4867 42.982C29.3376 43.1057 30.2321 42.8366 30.8794 42.1893C31.4612 41.6075 31.7594 40.7929 31.6939 39.9711C31.6867 39.8693 31.6721 39.7675 31.6503 39.6657C32.6176 39.7238 33.5703 39.3384 34.2248 38.5602C34.7848 37.8984 35.0467 37.0257 34.9376 36.1675C34.9303 36.102 34.923 36.0438 34.9085 35.9784C35.7885 36.0729 36.683 35.7675 37.3376 35.1275C38.0576 34.4075 38.3267 33.3893 38.1303 32.4293C38.1667 32.422 38.203 32.4293 38.2394 32.422L40.5812 32.0947C40.8794 32.3638 41.2794 32.5166 41.6794 32.5166C41.9048 32.5166 42.1303 32.4729 42.3412 32.3711L46.603 30.4875C47.403 30.1384 47.7812 29.2075 47.4539 28.3857ZM5.38848 29.2002C5.27939 29.2147 5.17757 29.1857 5.09757 29.1202L1.83211 26.5384C1.67211 26.4075 1.63575 26.1747 1.75939 26.0075L9.67212 15.2511C9.75212 15.142 9.86121 15.1129 9.92666 15.1057H9.97757C10.043 15.1057 10.1303 15.1202 10.2103 15.1857L13.5048 17.782C13.6648 17.9057 13.6939 18.1384 13.5776 18.2911L13.4758 18.4293C13.4685 18.4366 13.4612 18.4438 13.4539 18.4511L8.90121 24.6184C8.89393 24.6257 8.89393 24.6257 8.88666 24.6329L8.02121 25.8111L6.03575 28.502C6.02848 28.5093 6.02848 28.5166 6.02848 28.5166L5.63575 29.0547C5.56302 29.1566 5.46121 29.1929 5.38848 29.2002ZM9.18484 38.4875C8.66121 38.5529 8.13757 38.4075 7.71575 38.0802C6.85757 37.4111 6.69757 36.1529 7.37393 35.2802L9.71575 32.262C10.1085 31.7529 10.6976 31.4911 11.2939 31.4911C11.7158 31.4911 12.1448 31.6293 12.5085 31.9057C12.9958 32.2911 13.2794 32.8657 13.2794 33.4838C13.2794 33.9275 13.1339 34.3493 12.8576 34.7129L10.5158 37.7311C10.1812 38.1529 9.70848 38.422 9.18484 38.4875ZM11.6867 41.1857C11.2503 40.8293 11.003 40.3129 11.003 39.7602C11.003 39.3602 11.1412 38.9675 11.4103 38.6257L13.7448 35.6147C14.043 35.222 14.4794 34.982 14.9667 34.9238C15.0394 34.9093 15.1121 34.9093 15.1776 34.9093C15.5921 34.9093 15.9994 35.0547 16.3776 35.3602C17.163 35.9929 17.2867 37.1493 16.6539 37.9347L14.2612 40.9166C13.6285 41.6875 12.4721 41.8111 11.6867 41.1857ZM17.1921 43.8693C16.7703 43.9275 16.3558 43.8257 16.0576 43.6075L15.9339 43.5057C15.5848 43.2511 15.3667 42.8729 15.3085 42.4438C15.2503 42.0075 15.3739 41.5784 15.643 41.2366L17.4176 39.0402C17.723 38.6547 18.1885 38.4511 18.6539 38.4511C18.9812 38.4511 19.3158 38.5529 19.5921 38.7638C19.9921 39.062 20.2248 39.5275 20.2248 40.0293C20.2248 40.3566 20.1303 40.662 19.9485 40.9238C19.9339 40.9384 19.9267 40.9602 19.9121 40.982C19.9048 40.9893 19.9048 40.9966 19.8976 40.9966L19.8685 41.0402L18.2176 43.2511C17.9848 43.5929 17.6139 43.8111 17.1921 43.8693ZM23.3958 43.9202L22.5594 45.222C22.3194 45.5929 21.9485 45.8475 21.5121 45.942C21.083 46.0293 20.6467 45.9493 20.2903 45.7166L20.1958 45.6511C19.8103 45.4038 19.5558 45.0184 19.4758 44.5747C19.3958 44.1311 19.4903 43.6875 19.7594 43.3166C20.1958 42.742 20.6903 42.102 20.8867 41.862C20.923 41.8257 20.9594 41.782 20.9958 41.7529C21.003 41.7529 21.003 41.7457 21.003 41.7457C21.0103 41.7384 21.0248 41.7311 21.0321 41.7238C21.0685 41.6947 21.0976 41.6657 21.1558 41.6293C21.7012 41.302 22.3848 41.302 22.9158 41.6438C23.3812 41.942 23.6648 42.4657 23.6648 43.0329C23.6576 43.3529 23.5703 43.6584 23.3958 43.9202ZM36.4503 34.2402C35.8539 34.8293 34.8867 34.902 34.2176 34.4147L30.0358 31.3238L28.4067 30.1166C28.1303 29.9129 27.7376 29.9711 27.5267 30.2475C27.323 30.5238 27.3812 30.9166 27.6576 31.1275L30.5085 33.2366L32.923 35.0257C33.3448 35.3384 33.6139 35.7966 33.6794 36.3202C33.7448 36.8438 33.5921 37.3529 33.2503 37.7602C32.6248 38.502 31.5194 38.6402 30.7267 38.0802L25.7158 34.4947C25.4321 34.2911 25.0394 34.3566 24.843 34.6402C24.6394 34.9238 24.7048 35.3166 24.9885 35.5129L29.7812 38.9384C30.1521 39.2075 30.3848 39.622 30.4285 40.0729C30.4648 40.5311 30.3048 40.9747 29.9776 41.302C29.4321 41.8547 28.5521 41.9057 27.9339 41.4402L23.2067 37.7602C22.9303 37.5493 22.5376 37.5929 22.3267 37.8693C22.1158 38.1384 22.1594 38.5384 22.4285 38.7493L26.5594 41.9784C26.9521 42.2838 27.1994 42.742 27.2285 43.2366C27.2648 43.7384 27.083 44.2111 26.7267 44.5675C26.1448 45.1493 25.163 45.2147 24.5085 44.742C24.5085 44.742 24.4721 44.6984 24.4212 44.6475L24.4358 44.6257C24.7412 44.1602 24.9012 43.6147 24.9012 43.0402C24.9012 42.0438 24.4067 41.1347 23.5776 40.5966C22.9448 40.1893 22.1885 40.0657 21.4685 40.1966C21.4685 40.1457 21.4758 40.0947 21.4758 40.0438C21.4758 39.1347 21.0612 38.3057 20.3412 37.7675C19.7157 37.302 18.9667 37.1275 18.2539 37.2293C18.3994 36.182 18.0139 35.0838 17.1048 34.3493C16.4576 33.8184 15.6358 33.5857 14.8067 33.6802C14.6976 33.6947 14.5958 33.7238 14.4939 33.7457C14.5012 33.6584 14.5157 33.5784 14.5157 33.4911C14.5157 32.4802 14.0648 31.5493 13.2648 30.9238C12.0648 29.9929 10.4139 30.0438 9.26484 30.9457C9.26484 30.9384 9.26484 30.9384 9.27211 30.9311C9.25757 30.9457 9.24302 30.9602 9.22848 30.9675C9.15575 31.0257 9.08302 31.0984 9.01757 31.1638C8.95939 31.222 8.89393 31.2729 8.83575 31.3384V30.9893C8.83575 30.2329 8.47939 29.5275 7.8903 29.0984L7.4103 28.742L8.32666 27.4984L9.48302 25.9275L9.84666 25.4402C9.86848 25.4184 9.88302 25.3966 9.90484 25.3747L14.0576 19.7384L14.3267 19.9638C14.6976 20.2911 15.1848 20.4729 15.6867 20.4729H18.7267L16.9812 22.1457C16.5739 22.5384 16.3485 23.0693 16.3485 23.6366C16.3485 24.4511 16.7994 25.1711 17.5339 25.5129C19.323 26.3711 21.4394 26.3275 23.1921 25.4038L23.9485 25.0111C24.6612 24.6329 25.5339 24.7202 26.1667 25.2293L33.5485 31.142C33.9776 31.4766 34.4285 31.7529 34.8939 31.9566C35.0467 32.022 35.2139 32.0875 35.3594 32.1384C35.4903 32.1893 35.6285 32.2329 35.7448 32.262C35.9048 32.3129 36.0648 32.3493 36.203 32.3711C36.3921 32.4075 36.5739 32.4366 36.7267 32.4438C36.7994 32.4511 36.8648 32.4511 36.9376 32.4584C36.9085 32.4657 36.8867 32.4729 36.8576 32.4802C37.0612 33.0838 36.9158 33.7747 36.4503 34.2402ZM38.0648 31.1857C37.8248 31.2147 37.563 31.2293 37.2648 31.222C37.1412 31.222 37.0248 31.2147 36.8576 31.1929C36.7121 31.1857 36.5812 31.1566 36.4212 31.1275C36.3194 31.1129 36.2176 31.0911 36.0867 31.0475C35.9848 31.0257 35.8903 30.9893 35.7958 30.9529C35.6648 30.9093 35.5267 30.8511 35.403 30.8002C35.0394 30.6402 34.6758 30.422 34.3339 30.1529L27.3303 24.5384L26.9521 24.2402C26.3558 23.7602 25.6285 23.5129 24.8939 23.5129C24.3703 23.5129 23.8467 23.6366 23.3739 23.8911L22.6176 24.2838C21.2139 25.0257 19.5194 25.062 18.0867 24.3711C17.7448 24.2111 17.6212 23.8838 17.6212 23.6293C17.6212 23.4766 17.6648 23.2438 17.8685 23.0475L21.4976 19.5711C22.2103 18.8875 23.2212 18.5602 24.203 18.7057L32.043 19.862C32.763 19.9638 33.5048 19.8257 34.1158 19.4766L35.0758 18.9384L36.6176 22.7493L39.9339 30.9238L38.0648 31.1857ZM46.0939 29.3529L41.8248 31.2366C41.6576 31.3093 41.4539 31.2511 41.3303 31.0402L36.7921 19.8329L36.203 18.3929L35.8685 17.5638C35.7885 17.3747 35.8758 17.1566 36.0721 17.0693L40.3339 15.1784C40.4285 15.1347 40.5376 15.1347 40.6321 15.1711C40.7267 15.2075 40.7994 15.2802 40.8358 15.382L46.2903 28.8657C46.363 29.0475 46.2758 29.2657 46.0939 29.3529Z"/>
</mask>
<path d="M47.4539 28.3857L41.9994 14.9093C41.8321 14.4947 41.5194 14.1747 41.1048 14.0002C40.6903 13.8329 40.2321 13.8402 39.8248 14.022L35.5776 15.9129C34.8576 16.2184 34.4721 17.0038 34.6248 17.7529L33.4976 18.3857C33.1194 18.6038 32.6612 18.6838 32.2176 18.6257L24.3848 17.4693C23.0176 17.2729 21.6139 17.7238 20.6248 18.6766L20.0503 19.2293H15.7012C15.5048 19.2293 15.3085 19.1566 15.163 19.0257L14.7776 18.6984C15.0467 18.0366 14.8648 17.2657 14.283 16.8075L10.9958 14.2111C10.6467 13.9347 10.2103 13.8111 9.76666 13.8766C9.3303 13.9347 8.9303 14.1747 8.66848 14.5238L0.748478 25.2584C0.224842 25.9638 0.348478 26.9529 1.04666 27.5129L4.32666 30.102C4.62484 30.3347 4.97393 30.4511 5.33757 30.4511C5.4103 30.4511 5.4903 30.4438 5.56302 30.4366C5.99939 30.3784 6.39211 30.1457 6.65393 29.782L6.68302 29.7457L7.15575 30.102C7.43212 30.2984 7.59211 30.6329 7.59211 30.982V32.9384L6.3703 34.5093C5.27939 35.9275 5.52666 37.9711 6.93757 39.062C7.51212 39.5129 8.2103 39.7529 8.9303 39.7529C9.06121 39.7529 9.19939 39.7457 9.3303 39.7311C9.47575 39.7093 9.61393 39.6729 9.75212 39.6366C9.75212 39.6802 9.74484 39.7166 9.74484 39.7602C9.74484 40.6911 10.1667 41.5638 10.8939 42.1602C11.4612 42.6111 12.1448 42.8366 12.8212 42.8366C13.243 42.8366 13.6648 42.742 14.0576 42.5747V42.6111C14.1594 43.3747 14.5594 44.0511 15.1412 44.4802L15.2721 44.582C15.7667 44.9457 16.3558 45.142 16.9594 45.142C17.0976 45.142 17.2358 45.1347 17.3812 45.1129C17.6939 45.0693 17.9776 44.9602 18.2539 44.822C18.4067 45.6002 18.8503 46.2693 19.5121 46.6911L19.6067 46.7566C20.0794 47.0693 20.6248 47.2293 21.1776 47.2293C21.3812 47.2293 21.5776 47.2075 21.7812 47.1638C22.5448 47.0038 23.1921 46.5529 23.6212 45.8984L23.7448 45.7093C24.2612 46.102 24.8794 46.3057 25.5412 46.3057C26.3194 46.3057 27.083 45.9857 27.6358 45.4402C28.2394 44.8366 28.5594 43.9929 28.5012 43.142C28.5012 43.0911 28.4939 43.0329 28.4867 42.982C29.3376 43.1057 30.2321 42.8366 30.8794 42.1893C31.4612 41.6075 31.7594 40.7929 31.6939 39.9711C31.6867 39.8693 31.6721 39.7675 31.6503 39.6657C32.6176 39.7238 33.5703 39.3384 34.2248 38.5602C34.7848 37.8984 35.0467 37.0257 34.9376 36.1675C34.9303 36.102 34.923 36.0438 34.9085 35.9784C35.7885 36.0729 36.683 35.7675 37.3376 35.1275C38.0576 34.4075 38.3267 33.3893 38.1303 32.4293C38.1667 32.422 38.203 32.4293 38.2394 32.422L40.5812 32.0947C40.8794 32.3638 41.2794 32.5166 41.6794 32.5166C41.9048 32.5166 42.1303 32.4729 42.3412 32.3711L46.603 30.4875C47.403 30.1384 47.7812 29.2075 47.4539 28.3857ZM5.38848 29.2002C5.27939 29.2147 5.17757 29.1857 5.09757 29.1202L1.83211 26.5384C1.67211 26.4075 1.63575 26.1747 1.75939 26.0075L9.67212 15.2511C9.75212 15.142 9.86121 15.1129 9.92666 15.1057H9.97757C10.043 15.1057 10.1303 15.1202 10.2103 15.1857L13.5048 17.782C13.6648 17.9057 13.6939 18.1384 13.5776 18.2911L13.4758 18.4293C13.4685 18.4366 13.4612 18.4438 13.4539 18.4511L8.90121 24.6184C8.89393 24.6257 8.89393 24.6257 8.88666 24.6329L8.02121 25.8111L6.03575 28.502C6.02848 28.5093 6.02848 28.5166 6.02848 28.5166L5.63575 29.0547C5.56302 29.1566 5.46121 29.1929 5.38848 29.2002ZM9.18484 38.4875C8.66121 38.5529 8.13757 38.4075 7.71575 38.0802C6.85757 37.4111 6.69757 36.1529 7.37393 35.2802L9.71575 32.262C10.1085 31.7529 10.6976 31.4911 11.2939 31.4911C11.7158 31.4911 12.1448 31.6293 12.5085 31.9057C12.9958 32.2911 13.2794 32.8657 13.2794 33.4838C13.2794 33.9275 13.1339 34.3493 12.8576 34.7129L10.5158 37.7311C10.1812 38.1529 9.70848 38.422 9.18484 38.4875ZM11.6867 41.1857C11.2503 40.8293 11.003 40.3129 11.003 39.7602C11.003 39.3602 11.1412 38.9675 11.4103 38.6257L13.7448 35.6147C14.043 35.222 14.4794 34.982 14.9667 34.9238C15.0394 34.9093 15.1121 34.9093 15.1776 34.9093C15.5921 34.9093 15.9994 35.0547 16.3776 35.3602C17.163 35.9929 17.2867 37.1493 16.6539 37.9347L14.2612 40.9166C13.6285 41.6875 12.4721 41.8111 11.6867 41.1857ZM17.1921 43.8693C16.7703 43.9275 16.3558 43.8257 16.0576 43.6075L15.9339 43.5057C15.5848 43.2511 15.3667 42.8729 15.3085 42.4438C15.2503 42.0075 15.3739 41.5784 15.643 41.2366L17.4176 39.0402C17.723 38.6547 18.1885 38.4511 18.6539 38.4511C18.9812 38.4511 19.3158 38.5529 19.5921 38.7638C19.9921 39.062 20.2248 39.5275 20.2248 40.0293C20.2248 40.3566 20.1303 40.662 19.9485 40.9238C19.9339 40.9384 19.9267 40.9602 19.9121 40.982C19.9048 40.9893 19.9048 40.9966 19.8976 40.9966L19.8685 41.0402L18.2176 43.2511C17.9848 43.5929 17.6139 43.8111 17.1921 43.8693ZM23.3958 43.9202L22.5594 45.222C22.3194 45.5929 21.9485 45.8475 21.5121 45.942C21.083 46.0293 20.6467 45.9493 20.2903 45.7166L20.1958 45.6511C19.8103 45.4038 19.5558 45.0184 19.4758 44.5747C19.3958 44.1311 19.4903 43.6875 19.7594 43.3166C20.1958 42.742 20.6903 42.102 20.8867 41.862C20.923 41.8257 20.9594 41.782 20.9958 41.7529C21.003 41.7529 21.003 41.7457 21.003 41.7457C21.0103 41.7384 21.0248 41.7311 21.0321 41.7238C21.0685 41.6947 21.0976 41.6657 21.1558 41.6293C21.7012 41.302 22.3848 41.302 22.9158 41.6438C23.3812 41.942 23.6648 42.4657 23.6648 43.0329C23.6576 43.3529 23.5703 43.6584 23.3958 43.9202ZM36.4503 34.2402C35.8539 34.8293 34.8867 34.902 34.2176 34.4147L30.0358 31.3238L28.4067 30.1166C28.1303 29.9129 27.7376 29.9711 27.5267 30.2475C27.323 30.5238 27.3812 30.9166 27.6576 31.1275L30.5085 33.2366L32.923 35.0257C33.3448 35.3384 33.6139 35.7966 33.6794 36.3202C33.7448 36.8438 33.5921 37.3529 33.2503 37.7602C32.6248 38.502 31.5194 38.6402 30.7267 38.0802L25.7158 34.4947C25.4321 34.2911 25.0394 34.3566 24.843 34.6402C24.6394 34.9238 24.7048 35.3166 24.9885 35.5129L29.7812 38.9384C30.1521 39.2075 30.3848 39.622 30.4285 40.0729C30.4648 40.5311 30.3048 40.9747 29.9776 41.302C29.4321 41.8547 28.5521 41.9057 27.9339 41.4402L23.2067 37.7602C22.9303 37.5493 22.5376 37.5929 22.3267 37.8693C22.1158 38.1384 22.1594 38.5384 22.4285 38.7493L26.5594 41.9784C26.9521 42.2838 27.1994 42.742 27.2285 43.2366C27.2648 43.7384 27.083 44.2111 26.7267 44.5675C26.1448 45.1493 25.163 45.2147 24.5085 44.742C24.5085 44.742 24.4721 44.6984 24.4212 44.6475L24.4358 44.6257C24.7412 44.1602 24.9012 43.6147 24.9012 43.0402C24.9012 42.0438 24.4067 41.1347 23.5776 40.5966C22.9448 40.1893 22.1885 40.0657 21.4685 40.1966C21.4685 40.1457 21.4758 40.0947 21.4758 40.0438C21.4758 39.1347 21.0612 38.3057 20.3412 37.7675C19.7157 37.302 18.9667 37.1275 18.2539 37.2293C18.3994 36.182 18.0139 35.0838 17.1048 34.3493C16.4576 33.8184 15.6358 33.5857 14.8067 33.6802C14.6976 33.6947 14.5958 33.7238 14.4939 33.7457C14.5012 33.6584 14.5157 33.5784 14.5157 33.4911C14.5157 32.4802 14.0648 31.5493 13.2648 30.9238C12.0648 29.9929 10.4139 30.0438 9.26484 30.9457C9.26484 30.9384 9.26484 30.9384 9.27211 30.9311C9.25757 30.9457 9.24302 30.9602 9.22848 30.9675C9.15575 31.0257 9.08302 31.0984 9.01757 31.1638C8.95939 31.222 8.89393 31.2729 8.83575 31.3384V30.9893C8.83575 30.2329 8.47939 29.5275 7.8903 29.0984L7.4103 28.742L8.32666 27.4984L9.48302 25.9275L9.84666 25.4402C9.86848 25.4184 9.88302 25.3966 9.90484 25.3747L14.0576 19.7384L14.3267 19.9638C14.6976 20.2911 15.1848 20.4729 15.6867 20.4729H18.7267L16.9812 22.1457C16.5739 22.5384 16.3485 23.0693 16.3485 23.6366C16.3485 24.4511 16.7994 25.1711 17.5339 25.5129C19.323 26.3711 21.4394 26.3275 23.1921 25.4038L23.9485 25.0111C24.6612 24.6329 25.5339 24.7202 26.1667 25.2293L33.5485 31.142C33.9776 31.4766 34.4285 31.7529 34.8939 31.9566C35.0467 32.022 35.2139 32.0875 35.3594 32.1384C35.4903 32.1893 35.6285 32.2329 35.7448 32.262C35.9048 32.3129 36.0648 32.3493 36.203 32.3711C36.3921 32.4075 36.5739 32.4366 36.7267 32.4438C36.7994 32.4511 36.8648 32.4511 36.9376 32.4584C36.9085 32.4657 36.8867 32.4729 36.8576 32.4802C37.0612 33.0838 36.9158 33.7747 36.4503 34.2402ZM38.0648 31.1857C37.8248 31.2147 37.563 31.2293 37.2648 31.222C37.1412 31.222 37.0248 31.2147 36.8576 31.1929C36.7121 31.1857 36.5812 31.1566 36.4212 31.1275C36.3194 31.1129 36.2176 31.0911 36.0867 31.0475C35.9848 31.0257 35.8903 30.9893 35.7958 30.9529C35.6648 30.9093 35.5267 30.8511 35.403 30.8002C35.0394 30.6402 34.6758 30.422 34.3339 30.1529L27.3303 24.5384L26.9521 24.2402C26.3558 23.7602 25.6285 23.5129 24.8939 23.5129C24.3703 23.5129 23.8467 23.6366 23.3739 23.8911L22.6176 24.2838C21.2139 25.0257 19.5194 25.062 18.0867 24.3711C17.7448 24.2111 17.6212 23.8838 17.6212 23.6293C17.6212 23.4766 17.6648 23.2438 17.8685 23.0475L21.4976 19.5711C22.2103 18.8875 23.2212 18.5602 24.203 18.7057L32.043 19.862C32.763 19.9638 33.5048 19.8257 34.1158 19.4766L35.0758 18.9384L36.6176 22.7493L39.9339 30.9238L38.0648 31.1857ZM46.0939 29.3529L41.8248 31.2366C41.6576 31.3093 41.4539 31.2511 41.3303 31.0402L36.7921 19.8329L36.203 18.3929L35.8685 17.5638C35.7885 17.3747 35.8758 17.1566 36.0721 17.0693L40.3339 15.1784C40.4285 15.1347 40.5376 15.1347 40.6321 15.1711C40.7267 15.2075 40.7994 15.2802 40.8358 15.382L46.2903 28.8657C46.363 29.0475 46.2758 29.2657 46.0939 29.3529Z" fill="#435F9C"/>
<path d="M47.4539 28.3857L41.9994 14.9093C41.8321 14.4947 41.5194 14.1747 41.1048 14.0002C40.6903 13.8329 40.2321 13.8402 39.8248 14.022L35.5776 15.9129C34.8576 16.2184 34.4721 17.0038 34.6248 17.7529L33.4976 18.3857C33.1194 18.6038 32.6612 18.6838 32.2176 18.6257L24.3848 17.4693C23.0176 17.2729 21.6139 17.7238 20.6248 18.6766L20.0503 19.2293H15.7012C15.5048 19.2293 15.3085 19.1566 15.163 19.0257L14.7776 18.6984C15.0467 18.0366 14.8648 17.2657 14.283 16.8075L10.9958 14.2111C10.6467 13.9347 10.2103 13.8111 9.76666 13.8766C9.3303 13.9347 8.9303 14.1747 8.66848 14.5238L0.748478 25.2584C0.224842 25.9638 0.348478 26.9529 1.04666 27.5129L4.32666 30.102C4.62484 30.3347 4.97393 30.4511 5.33757 30.4511C5.4103 30.4511 5.4903 30.4438 5.56302 30.4366C5.99939 30.3784 6.39211 30.1457 6.65393 29.782L6.68302 29.7457L7.15575 30.102C7.43212 30.2984 7.59211 30.6329 7.59211 30.982V32.9384L6.3703 34.5093C5.27939 35.9275 5.52666 37.9711 6.93757 39.062C7.51212 39.5129 8.2103 39.7529 8.9303 39.7529C9.06121 39.7529 9.19939 39.7457 9.3303 39.7311C9.47575 39.7093 9.61393 39.6729 9.75212 39.6366C9.75212 39.6802 9.74484 39.7166 9.74484 39.7602C9.74484 40.6911 10.1667 41.5638 10.8939 42.1602C11.4612 42.6111 12.1448 42.8366 12.8212 42.8366C13.243 42.8366 13.6648 42.742 14.0576 42.5747V42.6111C14.1594 43.3747 14.5594 44.0511 15.1412 44.4802L15.2721 44.582C15.7667 44.9457 16.3558 45.142 16.9594 45.142C17.0976 45.142 17.2358 45.1347 17.3812 45.1129C17.6939 45.0693 17.9776 44.9602 18.2539 44.822C18.4067 45.6002 18.8503 46.2693 19.5121 46.6911L19.6067 46.7566C20.0794 47.0693 20.6248 47.2293 21.1776 47.2293C21.3812 47.2293 21.5776 47.2075 21.7812 47.1638C22.5448 47.0038 23.1921 46.5529 23.6212 45.8984L23.7448 45.7093C24.2612 46.102 24.8794 46.3057 25.5412 46.3057C26.3194 46.3057 27.083 45.9857 27.6358 45.4402C28.2394 44.8366 28.5594 43.9929 28.5012 43.142C28.5012 43.0911 28.4939 43.0329 28.4867 42.982C29.3376 43.1057 30.2321 42.8366 30.8794 42.1893C31.4612 41.6075 31.7594 40.7929 31.6939 39.9711C31.6867 39.8693 31.6721 39.7675 31.6503 39.6657C32.6176 39.7238 33.5703 39.3384 34.2248 38.5602C34.7848 37.8984 35.0467 37.0257 34.9376 36.1675C34.9303 36.102 34.923 36.0438 34.9085 35.9784C35.7885 36.0729 36.683 35.7675 37.3376 35.1275C38.0576 34.4075 38.3267 33.3893 38.1303 32.4293C38.1667 32.422 38.203 32.4293 38.2394 32.422L40.5812 32.0947C40.8794 32.3638 41.2794 32.5166 41.6794 32.5166C41.9048 32.5166 42.1303 32.4729 42.3412 32.3711L46.603 30.4875C47.403 30.1384 47.7812 29.2075 47.4539 28.3857ZM5.38848 29.2002C5.27939 29.2147 5.17757 29.1857 5.09757 29.1202L1.83211 26.5384C1.67211 26.4075 1.63575 26.1747 1.75939 26.0075L9.67212 15.2511C9.75212 15.142 9.86121 15.1129 9.92666 15.1057H9.97757C10.043 15.1057 10.1303 15.1202 10.2103 15.1857L13.5048 17.782C13.6648 17.9057 13.6939 18.1384 13.5776 18.2911L13.4758 18.4293C13.4685 18.4366 13.4612 18.4438 13.4539 18.4511L8.90121 24.6184C8.89393 24.6257 8.89393 24.6257 8.88666 24.6329L8.02121 25.8111L6.03575 28.502C6.02848 28.5093 6.02848 28.5166 6.02848 28.5166L5.63575 29.0547C5.56302 29.1566 5.46121 29.1929 5.38848 29.2002ZM9.18484 38.4875C8.66121 38.5529 8.13757 38.4075 7.71575 38.0802C6.85757 37.4111 6.69757 36.1529 7.37393 35.2802L9.71575 32.262C10.1085 31.7529 10.6976 31.4911 11.2939 31.4911C11.7158 31.4911 12.1448 31.6293 12.5085 31.9057C12.9958 32.2911 13.2794 32.8657 13.2794 33.4838C13.2794 33.9275 13.1339 34.3493 12.8576 34.7129L10.5158 37.7311C10.1812 38.1529 9.70848 38.422 9.18484 38.4875ZM11.6867 41.1857C11.2503 40.8293 11.003 40.3129 11.003 39.7602C11.003 39.3602 11.1412 38.9675 11.4103 38.6257L13.7448 35.6147C14.043 35.222 14.4794 34.982 14.9667 34.9238C15.0394 34.9093 15.1121 34.9093 15.1776 34.9093C15.5921 34.9093 15.9994 35.0547 16.3776 35.3602C17.163 35.9929 17.2867 37.1493 16.6539 37.9347L14.2612 40.9166C13.6285 41.6875 12.4721 41.8111 11.6867 41.1857ZM17.1921 43.8693C16.7703 43.9275 16.3558 43.8257 16.0576 43.6075L15.9339 43.5057C15.5848 43.2511 15.3667 42.8729 15.3085 42.4438C15.2503 42.0075 15.3739 41.5784 15.643 41.2366L17.4176 39.0402C17.723 38.6547 18.1885 38.4511 18.6539 38.4511C18.9812 38.4511 19.3158 38.5529 19.5921 38.7638C19.9921 39.062 20.2248 39.5275 20.2248 40.0293C20.2248 40.3566 20.1303 40.662 19.9485 40.9238C19.9339 40.9384 19.9267 40.9602 19.9121 40.982C19.9048 40.9893 19.9048 40.9966 19.8976 40.9966L19.8685 41.0402L18.2176 43.2511C17.9848 43.5929 17.6139 43.8111 17.1921 43.8693ZM23.3958 43.9202L22.5594 45.222C22.3194 45.5929 21.9485 45.8475 21.5121 45.942C21.083 46.0293 20.6467 45.9493 20.2903 45.7166L20.1958 45.6511C19.8103 45.4038 19.5558 45.0184 19.4758 44.5747C19.3958 44.1311 19.4903 43.6875 19.7594 43.3166C20.1958 42.742 20.6903 42.102 20.8867 41.862C20.923 41.8257 20.9594 41.782 20.9958 41.7529C21.003 41.7529 21.003 41.7457 21.003 41.7457C21.0103 41.7384 21.0248 41.7311 21.0321 41.7238C21.0685 41.6947 21.0976 41.6657 21.1558 41.6293C21.7012 41.302 22.3848 41.302 22.9158 41.6438C23.3812 41.942 23.6648 42.4657 23.6648 43.0329C23.6576 43.3529 23.5703 43.6584 23.3958 43.9202ZM36.4503 34.2402C35.8539 34.8293 34.8867 34.902 34.2176 34.4147L30.0358 31.3238L28.4067 30.1166C28.1303 29.9129 27.7376 29.9711 27.5267 30.2475C27.323 30.5238 27.3812 30.9166 27.6576 31.1275L30.5085 33.2366L32.923 35.0257C33.3448 35.3384 33.6139 35.7966 33.6794 36.3202C33.7448 36.8438 33.5921 37.3529 33.2503 37.7602C32.6248 38.502 31.5194 38.6402 30.7267 38.0802L25.7158 34.4947C25.4321 34.2911 25.0394 34.3566 24.843 34.6402C24.6394 34.9238 24.7048 35.3166 24.9885 35.5129L29.7812 38.9384C30.1521 39.2075 30.3848 39.622 30.4285 40.0729C30.4648 40.5311 30.3048 40.9747 29.9776 41.302C29.4321 41.8547 28.5521 41.9057 27.9339 41.4402L23.2067 37.7602C22.9303 37.5493 22.5376 37.5929 22.3267 37.8693C22.1158 38.1384 22.1594 38.5384 22.4285 38.7493L26.5594 41.9784C26.9521 42.2838 27.1994 42.742 27.2285 43.2366C27.2648 43.7384 27.083 44.2111 26.7267 44.5675C26.1448 45.1493 25.163 45.2147 24.5085 44.742C24.5085 44.742 24.4721 44.6984 24.4212 44.6475L24.4358 44.6257C24.7412 44.1602 24.9012 43.6147 24.9012 43.0402C24.9012 42.0438 24.4067 41.1347 23.5776 40.5966C22.9448 40.1893 22.1885 40.0657 21.4685 40.1966C21.4685 40.1457 21.4758 40.0947 21.4758 40.0438C21.4758 39.1347 21.0612 38.3057 20.3412 37.7675C19.7157 37.302 18.9667 37.1275 18.2539 37.2293C18.3994 36.182 18.0139 35.0838 17.1048 34.3493C16.4576 33.8184 15.6358 33.5857 14.8067 33.6802C14.6976 33.6947 14.5958 33.7238 14.4939 33.7457C14.5012 33.6584 14.5157 33.5784 14.5157 33.4911C14.5157 32.4802 14.0648 31.5493 13.2648 30.9238C12.0648 29.9929 10.4139 30.0438 9.26484 30.9457C9.26484 30.9384 9.26484 30.9384 9.27211 30.9311C9.25757 30.9457 9.24302 30.9602 9.22848 30.9675C9.15575 31.0257 9.08302 31.0984 9.01757 31.1638C8.95939 31.222 8.89393 31.2729 8.83575 31.3384V30.9893C8.83575 30.2329 8.47939 29.5275 7.8903 29.0984L7.4103 28.742L8.32666 27.4984L9.48302 25.9275L9.84666 25.4402C9.86848 25.4184 9.88302 25.3966 9.90484 25.3747L14.0576 19.7384L14.3267 19.9638C14.6976 20.2911 15.1848 20.4729 15.6867 20.4729H18.7267L16.9812 22.1457C16.5739 22.5384 16.3485 23.0693 16.3485 23.6366C16.3485 24.4511 16.7994 25.1711 17.5339 25.5129C19.323 26.3711 21.4394 26.3275 23.1921 25.4038L23.9485 25.0111C24.6612 24.6329 25.5339 24.7202 26.1667 25.2293L33.5485 31.142C33.9776 31.4766 34.4285 31.7529 34.8939 31.9566C35.0467 32.022 35.2139 32.0875 35.3594 32.1384C35.4903 32.1893 35.6285 32.2329 35.7448 32.262C35.9048 32.3129 36.0648 32.3493 36.203 32.3711C36.3921 32.4075 36.5739 32.4366 36.7267 32.4438C36.7994 32.4511 36.8648 32.4511 36.9376 32.4584C36.9085 32.4657 36.8867 32.4729 36.8576 32.4802C37.0612 33.0838 36.9158 33.7747 36.4503 34.2402ZM38.0648 31.1857C37.8248 31.2147 37.563 31.2293 37.2648 31.222C37.1412 31.222 37.0248 31.2147 36.8576 31.1929C36.7121 31.1857 36.5812 31.1566 36.4212 31.1275C36.3194 31.1129 36.2176 31.0911 36.0867 31.0475C35.9848 31.0257 35.8903 30.9893 35.7958 30.9529C35.6648 30.9093 35.5267 30.8511 35.403 30.8002C35.0394 30.6402 34.6758 30.422 34.3339 30.1529L27.3303 24.5384L26.9521 24.2402C26.3558 23.7602 25.6285 23.5129 24.8939 23.5129C24.3703 23.5129 23.8467 23.6366 23.3739 23.8911L22.6176 24.2838C21.2139 25.0257 19.5194 25.062 18.0867 24.3711C17.7448 24.2111 17.6212 23.8838 17.6212 23.6293C17.6212 23.4766 17.6648 23.2438 17.8685 23.0475L21.4976 19.5711C22.2103 18.8875 23.2212 18.5602 24.203 18.7057L32.043 19.862C32.763 19.9638 33.5048 19.8257 34.1158 19.4766L35.0758 18.9384L36.6176 22.7493L39.9339 30.9238L38.0648 31.1857ZM46.0939 29.3529L41.8248 31.2366C41.6576 31.3093 41.4539 31.2511 41.3303 31.0402L36.7921 19.8329L36.203 18.3929L35.8685 17.5638C35.7885 17.3747 35.8758 17.1566 36.0721 17.0693L40.3339 15.1784C40.4285 15.1347 40.5376 15.1347 40.6321 15.1711C40.7267 15.2075 40.7994 15.2802 40.8358 15.382L46.2903 28.8657C46.363 29.0475 46.2758 29.2657 46.0939 29.3529Z" stroke="#435F9C" stroke-width="0.6" mask="url(#path-1-outside-1_15325_3700)"/>
<path d="M16.3656 8.24731L16.3656 8.24757C16.373 12.4538 19.7927 15.8737 23.9993 15.8737C28.2057 15.8737 31.6256 12.4538 31.6256 8.24731C31.6256 4.04102 28.2059 0.613672 23.9993 0.613672C19.7929 0.613672 16.3656 4.03346 16.3656 8.24731ZM23.9993 2.17185C27.3489 2.17185 30.0674 4.8972 30.0674 8.24731C30.0674 11.5971 27.342 14.3155 23.9993 14.3155C20.6493 14.3155 17.9238 11.5898 17.9238 8.24731C17.9238 4.89742 20.6494 2.17185 23.9993 2.17185Z" fill="#FF9B00" stroke="#FF9B00" stroke-width="0.3"/>
<path d="M22.4718 10.5239C22.5882 10.6402 22.7482 10.7057 22.9155 10.7057C23.0827 10.7057 23.2427 10.6402 23.3591 10.5239L27.0173 6.8657C27.2646 6.61842 27.2646 6.2257 27.0173 5.97842C26.77 5.73115 26.3773 5.73115 26.13 5.97842L22.9155 9.19297L21.8755 8.15297C21.6282 7.9057 21.2355 7.9057 20.9882 8.15297C20.7409 8.40024 20.7409 8.79297 20.9882 9.04024L22.4718 10.5239Z" fill="#FF9B00"/>
</g>
<defs>
<clipPath id="clip0_15325_3700">
<rect width="48" height="48" fill="white"/>
</clipPath>
</defs>
</svg>
