<svg width="48" height="48" viewBox="0 0 48 48" fill="none" xmlns="http://www.w3.org/2000/svg">
<g clip-path="url(#clip0_15325_1025)">
<path d="M26.2403 29.7119C26.1416 29.7119 26.0439 29.7313 25.9527 29.7691C25.8615 29.8068 25.7787 29.8622 25.7089 29.932C25.6391 30.0017 25.5838 30.0846 25.546 30.1757C25.5082 30.2669 25.4888 30.3646 25.4888 30.4633V43.6506C25.4879 44.4052 25.1877 45.1287 24.6541 45.6623C24.1205 46.1959 23.397 46.4962 22.6423 46.4971H4.81419C4.05954 46.4962 3.33607 46.1959 2.80246 45.6623C2.26885 45.1287 1.96867 44.4052 1.96775 43.6506V4.34944C1.96867 3.59479 2.26885 2.87131 2.80246 2.33768C3.33607 1.80406 4.05954 1.50385 4.81419 1.50291H22.6422C23.3968 1.50385 24.1203 1.80406 24.6539 2.33768C25.1875 2.87131 25.4877 3.59479 25.4886 4.34944V5.85422C25.4886 6.05353 25.5678 6.24468 25.7087 6.38561C25.8496 6.52654 26.0408 6.60572 26.2401 6.60572C26.4394 6.60572 26.6306 6.52654 26.7715 6.38561C26.9124 6.24468 26.9916 6.05353 26.9916 5.85422V4.34944C26.9903 3.19629 26.5316 2.09074 25.7162 1.27535C24.9008 0.459948 23.7953 0.00129032 22.6422 0L4.81419 0C3.66106 0.00131513 2.55553 0.459983 1.74016 1.27538C0.924779 2.09077 0.466134 3.19631 0.464844 4.34944V43.6506C0.466159 44.8037 0.924811 45.9092 1.74018 46.7246C2.55556 47.54 3.66106 47.9987 4.81419 48H22.6422C23.7953 47.9987 24.9008 47.54 25.7162 46.7246C26.5316 45.9092 26.9903 44.8037 26.9916 43.6506V30.4633C26.9916 30.264 26.9124 30.0729 26.7715 29.932C26.6306 29.7911 26.4395 29.7119 26.2403 29.7119Z" fill="#435F9C"/>
<path d="M12.6064 43.336C12.4085 43.3382 12.2196 43.4183 12.0804 43.559C11.9413 43.6997 11.8633 43.8896 11.8633 44.0874C11.8633 44.2853 11.9413 44.4752 12.0804 44.6159C12.2196 44.7565 12.4085 44.8367 12.6064 44.8389H14.8496C14.949 44.84 15.0476 44.8214 15.1398 44.7841C15.2319 44.7469 15.3158 44.6917 15.3864 44.6218C15.4571 44.5519 15.5132 44.4687 15.5515 44.377C15.5898 44.2852 15.6095 44.1868 15.6095 44.0874C15.6095 43.988 15.5898 43.8896 15.5515 43.7979C15.5132 43.7062 15.4571 43.623 15.3864 43.5531C15.3158 43.4832 15.2319 43.428 15.1398 43.3908C15.0476 43.3535 14.949 43.3349 14.8496 43.336H12.6064Z" fill="#435F9C"/>
<path d="M19.0991 4.316C19.0991 4.11669 19.02 3.92554 18.879 3.78461C18.7381 3.64368 18.547 3.5645 18.3476 3.5645H9.10755C9.00816 3.56339 8.90954 3.58201 8.8174 3.61927C8.72525 3.65654 8.64142 3.71171 8.57074 3.7816C8.50007 3.85149 8.44396 3.93471 8.40567 4.02643C8.36737 4.11815 8.34766 4.21656 8.34766 4.31595C8.34766 4.41535 8.36737 4.51376 8.40567 4.60548C8.44396 4.6972 8.50007 4.78041 8.57074 4.8503C8.64142 4.92019 8.72525 4.97537 8.8174 5.01263C8.90954 5.0499 9.00816 5.06852 9.10755 5.06741H18.3476C18.4463 5.06742 18.544 5.04799 18.6352 5.01024C18.7264 4.97248 18.8092 4.91713 18.879 4.84736C18.9488 4.77758 19.0042 4.69474 19.0419 4.60357C19.0797 4.5124 19.0991 4.41468 19.0991 4.316Z" fill="#435F9C"/>
<path d="M12.9379 26.5406C12.8998 26.345 12.7855 26.1725 12.6203 26.0612C12.455 25.9499 12.2523 25.9087 12.0567 25.9468L9.59248 26.4281C9.19019 26.506 8.77342 26.4211 8.43365 26.1921C8.09388 25.963 7.85886 25.6085 7.78019 25.2064L6.70535 19.6968C6.66646 19.4976 6.66719 19.2926 6.70751 19.0937C6.74783 18.8948 6.82695 18.7057 6.94034 18.5373C7.05373 18.369 7.19918 18.2246 7.36838 18.1125C7.53758 18.0003 7.72721 17.9226 7.92644 17.8838L10.4946 17.383C10.6889 17.3435 10.8598 17.2288 10.9699 17.0639C11.08 16.899 11.1205 16.6973 11.0825 16.5027C11.0446 16.308 10.9313 16.1363 10.7672 16.0249C10.6032 15.9135 10.4018 15.8714 10.2069 15.9078L7.63872 16.4086C6.8452 16.5634 6.14565 17.027 5.69397 17.6976C5.24228 18.3681 5.07546 19.1906 5.23019 19.9842L6.30466 25.4941C6.45377 26.2617 6.89241 26.9426 7.52973 27.3957C8.16705 27.8488 8.95423 28.0394 9.72823 27.9281L11.8563 38.8411C11.9624 39.3839 12.2534 39.8731 12.6798 40.2253C13.1062 40.5775 13.6416 40.7708 14.1947 40.7724C14.3497 40.7723 14.5044 40.7573 14.6566 40.7276C14.9643 40.6676 15.2572 40.5475 15.5186 40.3743C15.7799 40.2011 16.0046 39.9781 16.1798 39.7181C16.3549 39.4581 16.4772 39.1661 16.5395 38.8588C16.6018 38.5515 16.603 38.235 16.543 37.9272L14.968 29.8522C14.9504 29.7541 14.9135 29.6604 14.8594 29.5767C14.8053 29.4929 14.7351 29.4208 14.6528 29.3645C14.5706 29.3082 14.4779 29.2688 14.3803 29.2486C14.2826 29.2285 14.182 29.228 14.0841 29.2471C13.9863 29.2662 13.8933 29.3046 13.8104 29.3601C13.7276 29.4155 13.6566 29.4869 13.6016 29.5701C13.5466 29.6532 13.5087 29.7465 13.4901 29.8444C13.4715 29.9424 13.4726 30.043 13.4933 30.1406L15.0683 38.2155C15.0906 38.3295 15.0901 38.4468 15.067 38.5607C15.0439 38.6745 14.9986 38.7827 14.9337 38.879C14.8688 38.9754 14.7856 39.058 14.6888 39.1222C14.5919 39.1863 14.4834 39.2308 14.3694 39.2531C14.2554 39.2753 14.1381 39.2749 14.0243 39.2518C13.9104 39.2287 13.8022 39.1834 13.7059 39.1185C13.5113 38.9874 13.3768 38.7844 13.3319 38.5542L11.2041 27.6446L12.3442 27.4222C12.4411 27.4033 12.5333 27.3655 12.6156 27.311C12.6979 27.2565 12.7686 27.1862 12.8237 27.1044C12.8789 27.0225 12.9173 26.9306 12.9369 26.8338C12.9565 26.7371 12.9569 26.6374 12.9379 26.5406Z" fill="#FF9B00"/>
<path d="M38.7084 16.3156C38.4961 15.2337 37.8743 14.2755 36.9727 13.6409C36.0712 13.0063 34.9594 12.7441 33.8693 12.9092L32.5812 6.30379C32.5299 6.04167 32.404 5.79997 32.2184 5.60783C32.0329 5.41569 31.7958 5.28132 31.5356 5.22092C31.2755 5.16052 31.0034 5.17667 30.7522 5.26742C30.501 5.35817 30.2814 5.51965 30.1199 5.73238C26.6896 10.228 21.4938 13.3483 15.4884 14.5193C15.029 14.6088 14.564 14.6868 14.1064 14.7511C13.9203 14.7771 13.7413 14.8408 13.5806 14.9382C13.4198 15.0356 13.2806 15.1648 13.1714 15.3178C13.0623 15.4708 12.9854 15.6445 12.9455 15.8281C12.9057 16.0118 12.9037 16.2017 12.9396 16.3862L14.801 25.9318C14.837 26.1163 14.9102 26.2915 15.0162 26.4467C15.1221 26.602 15.2586 26.734 15.4173 26.8348C15.576 26.9356 15.7535 27.003 15.9391 27.0328C16.1247 27.0627 16.3144 27.0544 16.4967 27.0086C16.9454 26.8961 17.4056 26.7938 17.8644 26.7044C23.8699 25.5332 29.8578 26.4729 34.7252 29.35C34.9549 29.4882 35.22 29.5562 35.4879 29.5455C35.7557 29.5348 36.0146 29.446 36.2325 29.2899C36.4517 29.1375 36.6214 28.9242 36.7207 28.6765C36.82 28.4287 36.8446 28.1573 36.7915 27.8957L35.5035 21.2905C36.5764 21.0351 37.509 20.3747 38.1063 19.4475C38.7035 18.5203 38.9191 17.3981 38.7079 16.3156H38.7084ZM27.1278 25.062C25.7137 24.8299 24.2829 24.7136 22.8498 24.714C21.0796 24.716 19.3138 24.8887 17.5768 25.2297C17.133 25.3162 16.6879 25.4142 16.2521 25.5213L14.4388 16.2224C14.8826 16.1579 15.3317 16.0817 15.776 15.9949C18.9282 15.3907 21.9471 14.2279 24.69 12.5613C27.1721 11.0629 29.3628 9.128 31.1564 6.84998L35.2662 27.926C32.7482 26.4885 29.9911 25.5183 27.1278 25.062ZM35.2155 19.8134L34.1572 14.3863C34.8556 14.2957 35.5623 14.4745 36.1335 14.8863C36.7048 15.2982 37.0978 15.9121 37.2326 16.6033C37.3674 17.2945 37.2339 18.0112 36.8592 18.6075C36.4845 19.2038 35.8968 19.635 35.2155 19.8134Z" fill="#FF9B00"/>
<path d="M47.5203 14.5974C47.5014 14.5005 47.4636 14.4083 47.4091 14.3261C47.3546 14.2438 47.2844 14.1731 47.2026 14.118C47.1208 14.0628 47.0289 14.0244 46.9322 14.0047C46.8355 13.9851 46.7358 13.9848 46.639 14.0036L41.7463 14.9576C41.6488 14.9759 41.5559 15.0132 41.4729 15.0675C41.3899 15.1218 41.3184 15.192 41.2627 15.2741C41.2069 15.3561 41.168 15.4484 41.1481 15.5455C41.1282 15.6427 41.1277 15.7429 41.1467 15.8402C41.1657 15.9376 41.2038 16.0302 41.2587 16.1128C41.3137 16.1953 41.3845 16.2662 41.4669 16.3213C41.5494 16.3764 41.642 16.4146 41.7393 16.4337C41.8366 16.4529 41.9368 16.4526 42.034 16.4328L46.9264 15.4788C47.0233 15.4599 47.1155 15.4221 47.1978 15.3676C47.28 15.3131 47.3508 15.2429 47.4059 15.1611C47.461 15.0792 47.4995 14.9873 47.5191 14.8906C47.5388 14.7939 47.5391 14.6942 47.5203 14.5974Z" fill="#FF9B00"/>
<path d="M38.9757 12.5027C39.0338 12.5826 39.107 12.6502 39.1912 12.7018C39.2753 12.7533 39.3689 12.7878 39.4664 12.8032C39.5639 12.8186 39.6635 12.8146 39.7595 12.7915C39.8554 12.7683 39.9459 12.7265 40.0257 12.6684L44.057 9.73609C44.2181 9.61886 44.3261 9.4424 44.3572 9.24554C44.3883 9.04868 44.3399 8.84754 44.2226 8.68637C44.1054 8.5252 43.9289 8.41721 43.7321 8.38614C43.5352 8.35508 43.3341 8.40348 43.1729 8.52072L39.1416 11.453C39.0618 11.5111 38.9942 11.5842 38.9427 11.6684C38.8911 11.7526 38.8567 11.846 38.8412 11.9435C38.8258 12.041 38.8298 12.1406 38.8529 12.2365C38.8759 12.3325 38.9177 12.4229 38.9757 12.5027Z" fill="#FF9B00"/>
<path d="M46.1355 20.4044L41.298 19.2014C41.2023 19.1776 41.1028 19.1729 41.0052 19.1875C40.9076 19.2022 40.8138 19.2359 40.7293 19.2868C40.6447 19.3376 40.571 19.4047 40.5124 19.484C40.4537 19.5634 40.4113 19.6535 40.3874 19.7493C40.3636 19.8451 40.3589 19.9446 40.3736 20.0422C40.3882 20.1397 40.4219 20.2335 40.4728 20.3181C40.5237 20.4026 40.5907 20.4763 40.6701 20.535C40.7494 20.5936 40.8396 20.6361 40.9353 20.6599L45.7728 21.863C45.9659 21.9101 46.1698 21.8789 46.3399 21.7761C46.51 21.6732 46.6324 21.5072 46.6804 21.3143C46.7284 21.1214 46.698 20.9174 46.5959 20.7468C46.4937 20.5763 46.3282 20.4532 46.1355 20.4044Z" fill="#FF9B00"/>
<path d="M35.9714 10.3628C36.0578 10.4107 36.1527 10.4411 36.2509 10.4523C36.349 10.4635 36.4483 10.4552 36.5432 10.4279C36.6381 10.4007 36.7268 10.355 36.804 10.2934C36.8812 10.2319 36.9455 10.1557 36.9933 10.0693L39.4073 5.70823C39.5038 5.53385 39.5271 5.32826 39.472 5.1367C39.417 4.94514 39.2881 4.7833 39.1137 4.68678C38.9393 4.59025 38.7337 4.56696 38.5422 4.62202C38.3506 4.67707 38.1888 4.80597 38.0923 4.98035L35.678 9.34142C35.5815 9.51578 35.5582 9.72134 35.6132 9.91289C35.6682 10.1044 35.7971 10.2663 35.9714 10.3628Z" fill="#FF9B00"/>
<path d="M43.3414 25.8843L39.4658 22.7497C39.3892 22.6866 39.3008 22.6392 39.2058 22.6104C39.1108 22.5816 39.0111 22.572 38.9123 22.5819C38.8135 22.5919 38.7177 22.6214 38.6304 22.6686C38.543 22.7158 38.4659 22.7799 38.4035 22.8571C38.3411 22.9342 38.2946 23.023 38.2666 23.1183C38.2387 23.2136 38.23 23.3134 38.2409 23.4121C38.2518 23.5108 38.2821 23.6063 38.3301 23.6932C38.3782 23.7801 38.4429 23.8566 38.5207 23.9183L42.3963 27.0528C42.5515 27.176 42.749 27.2329 42.946 27.2111C43.1429 27.1894 43.3232 27.0908 43.4478 26.9367C43.5723 26.7827 43.6311 26.5857 43.6111 26.3886C43.5912 26.1915 43.4943 26.0103 43.3414 25.8843Z" fill="#FF9B00"/>
</g>
<defs>
<clipPath id="clip0_15325_1025">
<rect width="48" height="48" fill="white"/>
</clipPath>
</defs>
</svg>
