<svg width="44" height="44" viewBox="0 0 44 44" fill="none" xmlns="http://www.w3.org/2000/svg">
<rect width="44" height="44" fill="#292929"/>
<g id="TRU&#39;s_advertising_24092024_TP192">
<path d="M-1967 -3430C-1967 -3431.1 -1966.1 -3432 -1965 -3432H1606C1607.1 -3432 1608 -3431.1 1608 -3430V5636C1608 5637.1 1607.1 5638 1606 5638H-1965C-1966.1 5638 -1967 5637.1 -1967 5636V-3430Z" fill="#444444"/>
<path d="M-1965 -3431H1606V-3433H-1965V-3431ZM1607 -3430V5636H1609V-3430H1607ZM1606 5637H-1965V5639H1606V5637ZM-1966 5636V-3430H-1968V5636H-1966ZM-1965 5637C-1965.55 5637 -1966 5636.55 -1966 5636H-1968C-1968 5637.66 -1966.66 5639 -1965 5639V5637ZM1607 5636C1607 5636.55 1606.55 5637 1606 5637V5639C1607.66 5639 1609 5637.66 1609 5636H1607ZM1606 -3431C1606.55 -3431 1607 -3430.55 1607 -3430H1609C1609 -3431.66 1607.66 -3433 1606 -3433V-3431ZM-1965 -3433C-1966.66 -3433 -1968 -3431.66 -1968 -3430H-1966C-1966 -3430.55 -1965.55 -3431 -1965 -3431V-3433Z" fill="white" fill-opacity="0.1"/>
<g id="TRU&#39;s_advertising_24092024_TP192_v1">
<rect width="1440" height="1175" transform="translate(-233 -636)" fill="white"/>
<g id="Frame 1984077903">
<g id="Frame 1984077497">
<g id="Frame 1984077496">
<g id="Frame 14">
<rect x="-132.5" y="-48.5" width="309" height="212" fill="white"/>
<rect x="-132.5" y="-48.5" width="309" height="212" stroke="#E4E4E4"/>
<g id="Frame 1000002084">
<g id="fi_10176290">
<path id="Vector" d="M8.87998 8.453L8.1711 9.1402H9.1584H13.8398C14.4471 9.1402 14.9398 9.63291 14.9398 10.2402C14.9398 10.8475 14.4471 11.3402 13.8398 11.3402H5.8398C5.23251 11.3402 4.7398 10.8475 4.7398 10.2402V2.2402C4.7398 1.63291 5.23251 1.1402 5.8398 1.1402C6.44709 1.1402 6.9398 1.63291 6.9398 2.2402V6.369V7.29456L7.6139 6.66033C11.4786 3.02416 16.6086 0.9 22 0.9C33.6345 0.9 43.1 10.3655 43.1 22C43.1 33.6345 33.6345 43.1 22 43.1C10.3655 43.1 0.9 33.6345 0.9 22C0.9 21.3927 1.39271 20.9 2 20.9C2.60729 20.9 3.1 21.3927 3.1 22C3.1 32.4221 11.5779 40.9 22 40.9C32.4221 40.9 40.9 32.4221 40.9 22C40.9 11.5779 32.4221 3.1 22 3.1C17.0629 3.1 12.365 5.07456 8.87998 8.453ZM20.5115 12.9116L20.9 12.9005V12.5118V11C20.9 10.3927 21.3927 9.9 22 9.9C22.6073 9.9 23.1 10.3927 23.1 11V12.5524V12.9097L23.4551 12.9499C25.5605 13.1879 27.361 14.6083 28.0444 16.6521C28.236 17.228 27.9241 17.8509 27.3487 18.0431C26.7607 18.2371 26.1483 17.9233 25.9558 17.3484C25.509 16.0042 24.2543 15.1 22.838 15.1H20.6486C19.5394 15.1 18.5563 15.8076 18.2067 16.8609C17.9873 17.5141 18.0388 18.2137 18.3456 18.8275C18.6529 19.442 19.1833 19.9017 19.8347 20.1189L24.8621 21.7947L24.8622 21.7947C26.0722 22.1978 27.0532 23.0475 27.6229 24.1895L27.6231 24.1901C28.1945 25.3314 28.2865 26.6246 27.8826 27.8354C27.2451 29.7434 25.4909 31.0311 23.4887 31.0888L23.1002 31.0999V31.4886V33.0004C23.1002 33.6077 22.6075 34.1004 22.0002 34.1004C21.3929 34.1004 20.9002 33.6077 20.9002 33.0004V31.448V31.0907L20.5451 31.0505C18.4397 30.8125 16.6392 29.3921 15.9558 27.3483C15.7641 26.7722 16.0763 26.1491 16.6521 25.9571L16.6526 25.9569C17.2331 25.7625 17.8501 26.075 18.0446 26.6527C18.4916 27.9965 19.7461 28.9004 21.1622 28.9004H23.3516C24.4608 28.9004 25.4439 28.1928 25.7935 27.1395C26.0129 26.4863 25.9614 25.7867 25.6546 25.1729C25.3473 24.5584 24.8169 24.0987 24.1655 23.8815L19.1381 22.2057L19.138 22.2057C17.928 21.8026 16.947 20.9529 16.3773 19.8109L16.3771 19.8103C15.8056 18.6689 15.7136 17.3757 16.1176 16.1648C16.7552 14.257 18.5094 12.9692 20.5115 12.9116Z" fill="#435F9C" stroke="white" stroke-width="0.8"/>
<g id="fi_10176290_2" clip-path="url(#clip0_14930_2903)">
<path id="Vector_2" d="M8.87998 8.453L8.1711 9.1402H9.1584H11.3734C11.3365 9.22598 11.3143 9.32226 11.3143 9.42857C11.3143 9.64554 11.408 9.83806 11.5058 9.98615C11.6074 10.1399 11.7422 10.2887 11.8846 10.4266C12.1693 10.7022 12.5321 10.9792 12.8482 11.2154C12.8972 11.252 12.9448 11.2874 12.9906 11.3215C12.999 11.3278 13.0073 11.334 13.0156 11.3402H5.8398C5.23251 11.3402 4.7398 10.8475 4.7398 10.2402V2.2402C4.7398 1.63291 5.23251 1.1402 5.8398 1.1402C6.44709 1.1402 6.9398 1.63291 6.9398 2.2402V6.369V7.29456L7.6139 6.66033C11.4786 3.02416 16.6086 0.9 22 0.9C33.6345 0.9 43.1 10.3655 43.1 22C43.1 33.6345 33.6345 43.1 22 43.1C10.3655 43.1 0.9 33.6345 0.9 22C0.9 21.3927 1.39271 20.9 2 20.9C2.60729 20.9 3.1 21.3927 3.1 22C3.1 32.4221 11.5779 40.9 22 40.9C32.4221 40.9 40.9 32.4221 40.9 22C40.9 11.5779 32.4221 3.1 22 3.1C17.0629 3.1 12.365 5.07456 8.87998 8.453ZM20.5115 12.9116L20.9 12.9005V12.5118V11C20.9 10.3927 21.3927 9.9 22 9.9C22.6073 9.9 23.1 10.3927 23.1 11V12.5524V12.9097L23.4551 12.9499C25.5604 13.1879 27.3609 14.6082 28.0443 16.6518C28.2361 17.2278 27.9242 17.8509 27.3487 18.0431C26.7607 18.2371 26.1483 17.9233 25.9558 17.3484C25.509 16.0042 24.2543 15.1 22.838 15.1H20.6486C19.5394 15.1 18.5563 15.8076 18.2067 16.8609C17.9873 17.5141 18.0388 18.2137 18.3456 18.8275C18.6529 19.442 19.1833 19.9018 19.8347 20.1189L24.8621 21.7947L24.8622 21.7947C26.0722 22.1978 27.0532 23.0475 27.6229 24.1895L27.6231 24.1901C28.1946 25.3315 28.2866 26.6247 27.8826 27.8356C27.245 29.7434 25.4908 31.0312 23.4887 31.0888L23.1002 31.0999V31.4886V33.0004C23.1002 33.6077 22.6075 34.1004 22.0002 34.1004C21.3929 34.1004 20.9002 33.6077 20.9002 33.0004V31.448V31.0907L20.5451 31.0505C18.4397 30.8125 16.6392 29.3921 15.9558 27.3483C15.7641 26.7722 16.0763 26.1491 16.6521 25.9571L16.6526 25.9569C17.233 25.7625 17.8499 26.0749 18.0445 26.6524C18.4915 27.9964 19.746 28.9004 21.1622 28.9004H23.3516C24.4608 28.9004 25.4439 28.1928 25.7935 27.1395C26.0129 26.4863 25.9614 25.7867 25.6546 25.1729C25.3473 24.5584 24.8169 24.0987 24.1655 23.8815L19.1381 22.2057L19.138 22.2057C17.928 21.8026 16.947 20.9529 16.3773 19.8109L16.3771 19.8103C15.8056 18.6689 15.7136 17.3757 16.1176 16.1648C16.7552 14.257 18.5094 12.9692 20.5115 12.9116Z" fill="#FF9A00" stroke="white" stroke-width="0.8"/>
</g>
</g>
</g>
</g>
</g>
</g>
</g>
</g>
</g>
<defs>
<clipPath id="clip0_14930_2903">
<rect width="16" height="27.4286" fill="white" transform="translate(14 9.42871)"/>
</clipPath>
</defs>
</svg>
